<?xml version="1.0" encoding="UTF-8"?>
<svg version="1.1" xmlns="http://www.w3.org/2000/svg" width="388" height="130">
<path d="M0 0 C128.04 0 256.08 0 388 0 C388 42.9 388 85.8 388 130 C259.96 130 131.92 130 0 130 C0 87.1 0 44.2 0 0 Z " fill="#FDFEFE" transform="translate(0,0)"/>
<path d="M0 0 C21.12 0 42.24 0 64 0 C65.32 4.29 66.64 8.58 68 13 C71.11613201 19.12097359 76.14467754 22.95977461 82.140625 26.1328125 C86.32909996 27.40308769 90.45718153 27.46910493 94.8125 27.625 C95.69615234 27.66367187 96.57980469 27.70234375 97.49023438 27.7421875 C99.65982972 27.83600784 101.82988547 27.91907326 104 28 C104 32.95 104 37.9 104 43 C103.34 43 102.68 43 102 43 C102 61.48 102 79.96 102 99 C101.67 99 101.34 99 101 99 C100.99191315 98.19011627 100.98382629 97.38023254 100.97549438 96.54580688 C100.8976396 88.92332269 100.81037705 81.30103245 100.71247292 73.67878151 C100.66246998 69.75984887 100.61614057 65.84094371 100.578125 61.921875 C100.5413223 58.14163767 100.49497657 54.36162809 100.44193649 50.58158493 C100.42336573 49.13749552 100.40826772 47.69335724 100.39665604 46.2491951 C100.37984008 44.23064937 100.34966895 42.21222812 100.31884766 40.19384766 C100.30552399 39.04357086 100.29220032 37.89329407 100.2784729 36.7081604 C100.27262362 33.85191072 100.27262362 33.85191072 98 32 C95.1676097 31.66735445 95.1676097 31.66735445 91.80615234 31.68115234 C90.50495453 31.66128265 89.20375671 31.64141296 87.86312866 31.62094116 C86.4374 31.6090638 85.01166955 31.597401 83.5859375 31.5859375 C82.13146862 31.56723326 80.67701067 31.54766041 79.2225647 31.5272522 C75.39215531 31.47584606 71.56171072 31.43626601 67.73114014 31.39910889 C63.82327503 31.35912218 59.91555748 31.3080056 56.0078125 31.2578125 C48.33864277 31.1609529 40.66940187 31.07658053 33 31 C33.62304377 33.09511158 34.25172963 35.1885459 34.8828125 37.28125 C35.23230957 38.44720703 35.58180664 39.61316406 35.94189453 40.81445312 C38.07182843 47.2268614 41.54048145 51.11534257 47 55 C52.95853275 57.64393769 58.01939303 58.50279215 64.5 58.6875 C65.32242188 58.72166016 66.14484375 58.75582031 66.9921875 58.79101562 C68.9943455 58.8724988 70.99714568 58.93794575 73 59 C73 63.95 73 68.9 73 74 C72.34 74 71.68 74 71 74 C71 92.48 71 110.96 71 130 C47.57 130 24.14 130 0 130 C0 87.1 0 44.2 0 0 Z " fill="#FDFDFE" transform="translate(0,0)"/>
<path d="M0 0 C3.99464569 2.91333642 7.25328649 5.87992973 10 10 C10.33 6.37 10.66 2.74 11 -1 C15.62 -1 20.24 -1 25 -1 C25 25.07 25 51.14 25 78 C20.38 78 15.76 78 11 78 C10.67 74.37 10.34 70.74 10 67 C9.21625 68.051875 8.4325 69.10375 7.625 70.1875 C2.6288577 76.05201942 -4.81771006 79.5756235 -12.48046875 80.203125 C-21.66104151 80.36209596 -28.87501671 78.67900362 -36.14453125 72.875 C-45.7584172 63.15991525 -47.19237128 51.29441069 -47.3125 38.3125 C-47.34150391 37.28705078 -47.37050781 36.26160156 -47.40039062 35.20507812 C-47.48929063 24.37979307 -44.25652327 14.2158078 -37 6 C-26.5752446 -3.01181334 -12.76994516 -6.68790923 0 0 Z " fill="#263A59" transform="translate(361,39)"/>
<path d="M0 0 C8.27544831 -0.06952789 16.55077447 -0.12282519 24.82644272 -0.15543652 C28.66923087 -0.17108879 32.5118191 -0.19231873 36.35449219 -0.22631836 C40.06329563 -0.25892795 43.77190684 -0.27685631 47.48084259 -0.28463173 C48.89543941 -0.29017241 50.31002578 -0.30099212 51.72454071 -0.31719017 C53.70655548 -0.33898301 55.6887639 -0.34022556 57.67089844 -0.34057617 C58.79896912 -0.34723801 59.92703979 -0.35389984 61.08929443 -0.36076355 C64.41795469 0.05180284 65.79258235 0.46797182 68 3 C68.48101807 5.82841492 68.48101807 5.82841492 68.45410156 9.30737305 C68.45379944 10.60849533 68.45349731 11.90961761 68.45318604 13.25016785 C68.43275932 14.67069102 68.41189533 16.09120796 68.390625 17.51171875 C68.38316369 18.9647392 68.37747024 20.41776972 68.37347412 21.87080383 C68.35820878 25.69332715 68.3189202 29.51524153 68.2746582 33.33752441 C68.23372432 37.23860435 68.21546719 41.13978278 68.1953125 45.04101562 C68.15242596 52.69428789 68.08416485 60.34705859 68 68 C66.55899665 67.86189576 65.11859134 67.71754213 63.6784668 67.57055664 C62.8762822 67.49084122 62.0740976 67.41112579 61.24760437 67.32899475 C54.88940185 66.39830816 49.47647124 62.03684015 45.5625 57.125 C39.41109914 47.81948142 39.64737265 39.76166434 40 29 C38.53240234 29.05220703 38.53240234 29.05220703 37.03515625 29.10546875 C26.6715007 29.31946754 18.37329715 28.69863772 10 22 C5.29932047 17.48781889 1.81316548 12.30341648 0 6 C-0.02639727 4.00017421 -0.02906421 1.99978881 0 0 Z " fill="#2883FB" transform="translate(2,62)"/>
<path d="M0 0 C8.4231034 -0.06947615 16.84608732 -0.12279887 25.26940632 -0.15543652 C29.18060226 -0.17110009 33.09160234 -0.19235063 37.00268555 -0.22631836 C40.77632259 -0.25888769 44.5497711 -0.2768478 48.32353783 -0.28463173 C49.76408036 -0.29017965 51.20461246 -0.30101336 52.64507484 -0.31719017 C54.6608234 -0.33892959 56.67676121 -0.3402251 58.69262695 -0.34057617 C59.84068314 -0.34723801 60.98873932 -0.35389984 62.17158508 -0.36076355 C65 0 65 0 66.8729248 1.1270752 C68.53450301 3.88821399 68.35919336 6.0990116 68.34057617 9.30737305 C68.34034958 10.60849533 68.34012299 11.90961761 68.33988953 13.25016785 C68.32456952 14.6706883 68.30892153 16.09120526 68.29296875 17.51171875 C68.28737276 18.96474266 68.28310267 20.41777224 68.28010559 21.87080383 C68.26865695 25.69320329 68.23918999 29.5152602 68.20599365 33.33752441 C68.17529295 37.23864101 68.16160028 41.13981302 68.14648438 45.04101562 C68.11431998 52.6941665 68.06312383 60.34703523 68 68 C66.55899665 67.86189576 65.11859134 67.71754213 63.6784668 67.57055664 C62.8762822 67.49084122 62.0740976 67.41112579 61.24760437 67.32899475 C54.88940185 66.39830816 49.47647124 62.03684015 45.5625 57.125 C39.24186634 47.54556938 39.65980641 39.08779113 40 28 C38.22496094 28.06960937 38.22496094 28.06960937 36.4140625 28.140625 C25.574635 28.4422618 16.59266079 28.44582105 8.125 20.8125 C2.47140221 14.57220811 0.96073029 8.12286628 0 0 Z " fill="#2582FC" transform="translate(33,31)"/>
<path d="M0 0 C8.4231034 -0.06947615 16.84608732 -0.12279887 25.26940632 -0.15543652 C29.18060226 -0.17110009 33.09160234 -0.19235063 37.00268555 -0.22631836 C40.77632259 -0.25888769 44.5497711 -0.2768478 48.32353783 -0.28463173 C49.76408036 -0.29017965 51.20461246 -0.30101336 52.64507484 -0.31719017 C54.6608234 -0.33892959 56.67676121 -0.3402251 58.69262695 -0.34057617 C59.84068314 -0.34723801 60.98873932 -0.35389984 62.17158508 -0.36076355 C65 0 65 0 66.8729248 1.1328125 C68.52382939 3.8678105 68.35932729 6.03413643 68.34057617 9.21557617 C68.34034958 10.4966777 68.34012299 11.77777924 68.33988953 13.09770203 C68.32456957 14.49612781 68.30892158 15.89455004 68.29296875 17.29296875 C68.28737268 18.72357234 68.28310263 20.15418169 68.28010559 21.58479309 C68.26865756 25.34801132 68.23919115 29.11088156 68.20599365 32.8739624 C68.17529163 36.71475517 68.1616 40.55560423 68.14648438 44.39648438 C68.11432106 51.93114814 68.06312566 59.46552529 68 67 C59.75532499 67.17646153 54.3037944 64.86014111 47.86328125 59.8828125 C43.8147036 55.79179693 40.23444064 48.92599841 39.88647461 43.09887695 C39.89171143 42.40238037 39.89694824 41.70588379 39.90234375 40.98828125 C39.90556641 40.23095703 39.90878906 39.47363281 39.91210938 38.69335938 C39.92467773 37.51483398 39.92467773 37.51483398 39.9375 36.3125 C39.94201172 35.51521484 39.94652344 34.71792969 39.95117188 33.89648438 C39.9629415 31.93095743 39.98087652 29.96546915 40 28 C38.11667969 28.08701172 38.11667969 28.08701172 36.1953125 28.17578125 C25.52253261 28.52542885 17.37710486 28.59547527 8.9921875 21.23828125 C4.101964 16.19459886 0.06728913 9.5359562 -0.03930664 2.3503418 C-0.02633545 1.574729 -0.01336426 0.79911621 0 0 Z " fill="#2684FE" transform="translate(64,0)"/>
<path d="M0 0 C5.17572554 3.88179416 8.59088111 8.58287479 10.4375 14.8125 C10.91157098 18.59066931 10.94737488 22.32070427 10.9375 26.125 C10.96585937 27.10662109 10.99421875 28.08824219 11.0234375 29.09960938 C11.04533056 37.36971271 8.92297614 44.23530081 3.0625 50.25 C-4.56669837 54.79118951 -10.6224295 55.81712913 -19.5625 54.8125 C-24.74679988 53.19696993 -28.88399675 49.50233353 -31.5625 44.8125 C-35.90116792 34.53212219 -36.40933876 21.57032044 -32.66796875 11.03125 C-29.93983845 5.55570932 -25.66881666 0.26432874 -19.70703125 -1.78125 C-13.00860636 -3.05016838 -6.02754227 -3.57814775 0 0 Z " fill="#FDFDFD" transform="translate(361.5625,51.1875)"/>
<path d="M0 0 C4.62 0 9.24 0 14 0 C14.093018 10.37103296 14.16392558 20.74196533 14.20724869 31.11333179 C14.22805031 35.93011612 14.25623095 40.7466133 14.30175781 45.56323242 C14.34548214 50.21871925 14.36919284 54.87393132 14.37950897 59.52960777 C14.38685292 61.29848233 14.40119299 63.06734326 14.42292023 64.83609962 C14.57023359 77.33492567 13.90705583 88.1712322 5.71484375 98.34375 C0.03753679 103.82707153 -7.06381437 105.19446227 -14.6875 105.1875 C-15.40486328 105.18814453 -16.12222656 105.18878906 -16.86132812 105.18945312 C-21.91497802 105.13896253 -26.22347336 104.59217555 -31 103 C-31 98.38 -31 93.76 -31 89 C-29.02 89.33 -27.04 89.66 -25 90 C-22.50312761 90.16272352 -20.00170288 90.26419476 -17.5 90.3125 C-16.2315625 90.34988281 -14.963125 90.38726562 -13.65625 90.42578125 C-9.23448638 89.91085365 -7.28722247 88.9991182 -4 86 C-1.27334151 80.86106414 -0.55581008 75.70051238 -0.56762695 69.93164062 C-0.5574353 69.16969391 -0.54724365 68.40774719 -0.53674316 67.62271118 C-0.50683374 65.13381385 -0.49738147 62.64530273 -0.48828125 60.15625 C-0.47141814 58.41889184 -0.45326571 56.68154575 -0.43388367 54.94421387 C-0.38655462 50.39379654 -0.35663502 45.84342821 -0.33044434 41.29284668 C-0.30055216 36.64044524 -0.25405173 31.98821231 -0.20898438 27.3359375 C-0.12314598 18.2240468 -0.05571452 9.11212123 0 0 Z " fill="#243858" transform="translate(199,13)"/>
<path d="M0 0 C0 4.29 0 8.58 0 13 C-0.99 13.02578125 -1.98 13.0515625 -3 13.078125 C-13.78275188 13.17069457 -13.78275188 13.17069457 -23 18 C-27.67229544 24.34346089 -27.60125639 30.00399015 -27.609375 37.71484375 C-27.62591125 38.92572159 -27.64244751 40.13659943 -27.65948486 41.38417053 C-27.70790272 45.23533229 -27.72932327 49.08609928 -27.75 52.9375 C-27.77816468 55.55535833 -27.80809279 58.17319833 -27.83984375 60.79101562 C-27.91366087 67.19397793 -27.96327415 73.59672186 -28 80 C-32.62 80 -37.24 80 -42 80 C-42 53.93 -42 27.86 -42 1 C-37.38 1 -32.76 1 -28 1 C-27.67 4.63 -27.34 8.26 -27 12 C-26.01 10.7625 -25.02 9.525 -24 8.25 C-16.7615366 0.10131066 -10.6958026 -0.48617285 0 0 Z " fill="#2A3D5C" transform="translate(308,37)"/>
<path d="M0 0 C4.62 0 9.24 0 14 0 C14 26.07 14 52.14 14 79 C9.38 79 4.76 79 0 79 C0 52.93 0 26.86 0 0 Z " fill="#283B5B" transform="translate(232,38)"/>
<path d="M0 0 C6.79928419 -0.0505894 13.5985201 -0.08568667 20.39794922 -0.10986328 C22.71242079 -0.11993892 25.02687959 -0.13359975 27.34130859 -0.15087891 C30.66246693 -0.17505865 33.9834574 -0.1864673 37.3046875 -0.1953125 C38.34430634 -0.20563507 39.38392517 -0.21595764 40.45504761 -0.22659302 C41.41589264 -0.22674408 42.37673767 -0.22689514 43.36669922 -0.22705078 C44.63910965 -0.23371262 44.63910965 -0.23371262 45.93722534 -0.24050903 C48 0 48 0 50 2 C50.24050903 3.91091919 50.24050903 3.91091919 50.22705078 6.26611328 C50.22689972 7.14687531 50.22674866 8.02763733 50.22659302 8.93508911 C50.21627045 9.88721283 50.20594788 10.83933655 50.1953125 11.8203125 C50.1924826 12.79410858 50.18965271 13.76790466 50.18673706 14.77120972 C50.17551913 17.88926349 50.1504117 21.00703268 50.125 24.125 C50.11497228 26.23567294 50.10584607 28.34635038 50.09765625 30.45703125 C50.07557458 35.63811835 50.04208129 40.81903885 50 46 C47.11723885 44.61437164 45.00780064 43.2806067 42.75 41 C41.96882813 40.2265625 41.96882813 40.2265625 41.171875 39.4375 C40 38 40 38 40 36 C39.34 36 38.68 36 38 36 C36.72827148 34.70263672 36.72827148 34.70263672 35.18359375 32.8046875 C31.90808059 28.95084288 28.44391836 25.3699859 24.84765625 21.8203125 C24.29902924 21.27735535 23.75040222 20.73439819 23.18515015 20.17498779 C20.8930808 17.90999225 18.5968839 15.64926216 16.29663086 13.39257812 C14.60099814 11.7269587 12.91148699 10.05532413 11.22265625 8.3828125 C10.69777115 7.87138702 10.17288605 7.35996155 9.63209534 6.83303833 C8.38304841 5.59282171 7.18597483 4.30066105 6 3 C6 2.34 6 1.68 6 1 C4.02 1 2.04 1 0 1 C0 0.67 0 0.34 0 0 Z " fill="#0D63DD" transform="translate(20,63)"/>
<path d="M0 0 C2.0205228 -0.05469084 4.04148888 -0.09310129 6.0625 -0.125 C7.18785156 -0.14820313 8.31320313 -0.17140625 9.47265625 -0.1953125 C14.87379014 0.10375361 18.62073981 0.75787087 22.7109375 4.44140625 C23.61200008 5.47049599 24.49935664 6.51169641 25.375 7.5625 C26.39603813 8.72721362 27.4210206 9.8884773 28.44921875 11.046875 C29.00528809 11.67529297 29.56135742 12.30371094 30.13427734 12.95117188 C33.69378959 16.86002123 37.44584358 20.57908512 41.1875 24.3125 C41.94272949 25.07183838 42.69795898 25.83117676 43.47607422 26.61352539 C44.17877441 27.31469482 44.88147461 28.01586426 45.60546875 28.73828125 C46.23606201 29.36774658 46.86665527 29.99721191 47.51635742 30.64575195 C48.78830062 32.11236094 48.78830062 32.11236094 50 32 C50 36.62 50 41.24 50 46 C46.76414639 44.38207319 45.16753932 43.44195891 42.75 41 C41.96882813 40.2265625 41.96882813 40.2265625 41.171875 39.4375 C40 38 40 38 40 36 C39.34 36 38.68 36 38 36 C36.72827148 34.70263672 36.72827148 34.70263672 35.18359375 32.8046875 C31.90808059 28.95084288 28.44391836 25.3699859 24.84765625 21.8203125 C24.29902924 21.27735535 23.75040222 20.73439819 23.18515015 20.17498779 C20.8930808 17.90999225 18.5968839 15.64926216 16.29663086 13.39257812 C14.60099814 11.7269587 12.91148699 10.05532413 11.22265625 8.3828125 C10.69777115 7.87138702 10.17288605 7.35996155 9.63209534 6.83303833 C8.38304841 5.59282171 7.18597483 4.30066105 6 3 C6 2.34 6 1.68 6 1 C4.02 1 2.04 1 0 1 C0 0.67 0 0.34 0 0 Z " fill="#1770EB" transform="translate(20,63)"/>
<path d="M0 0 C4.37823917 -0.04938149 8.75633146 -0.0857104 13.13476562 -0.10986328 C14.6247032 -0.11993043 16.11462097 -0.13358518 17.60449219 -0.15087891 C19.74419028 -0.17509653 21.88362753 -0.18647564 24.0234375 -0.1953125 C25.31169434 -0.20578613 26.59995117 -0.21625977 27.92724609 -0.22705078 C31 0 31 0 33 2 C33.22705078 4.79736328 33.22705078 4.79736328 33.1953125 8.3203125 C33.18886719 9.57714844 33.18242188 10.83398438 33.17578125 12.12890625 C33.15902344 13.44761719 33.14226562 14.76632813 33.125 16.125 C33.11496983 17.46483721 33.10584404 18.80468152 33.09765625 20.14453125 C33.07402075 23.42986573 33.04107234 26.71484465 33 30 C32.34 30 31.68 30 31 30 C29.5625 28.50390625 29.5625 28.50390625 28 26.5625 C25.85474956 23.84811762 25.85474956 23.84811762 23 22 C23 21.34 23 20.68 23 20 C22.01 19.67 21.02 19.34 20 19 C20 18.34 20 17.68 20 17 C19.40453369 16.73123047 18.80906738 16.46246094 18.19555664 16.18554688 C15.99343296 14.99645396 14.60232843 13.820257 12.87109375 12.03125 C12.31099609 11.46019531 11.75089844 10.88914062 11.17382812 10.30078125 C10.60083984 9.70652344 10.02785156 9.11226562 9.4375 8.5 C8.29269053 7.32065437 7.14563543 6.14348348 5.99609375 4.96875 C5.49263428 4.44732422 4.9891748 3.92589844 4.47045898 3.38867188 C2.84358092 1.7743892 2.84358092 1.7743892 0 0 Z " fill="#0D64DE" transform="translate(68,32)"/>
<path d="M0 0 C0.76837189 0.00141495 1.53674377 0.0028299 2.32839966 0.00428772 C4.76324489 0.00984942 7.19799544 0.02239465 9.6328125 0.03515625 C11.29166533 0.04017621 12.95051962 0.04473824 14.609375 0.04882812 C18.6588902 0.05980627 22.70833534 0.07704419 26.7578125 0.09765625 C26.7578125 0.42765625 26.7578125 0.75765625 26.7578125 1.09765625 C13.3928125 1.59265625 13.3928125 1.59265625 -0.2421875 2.09765625 C3.315625 5.68640625 3.315625 5.68640625 6.9453125 9.34765625 C7.68289795 10.0943457 8.4204834 10.84103516 9.18041992 11.61035156 C11.95116649 14.39269748 14.65945192 17.01999639 17.74609375 19.45703125 C18.40996094 19.9984375 19.07382813 20.53984375 19.7578125 21.09765625 C19.7578125 21.75765625 19.7578125 22.41765625 19.7578125 23.09765625 C20.3353125 23.34515625 20.9128125 23.59265625 21.5078125 23.84765625 C24.08721229 25.28065613 25.81902842 26.88190301 27.7578125 29.09765625 C27.7578125 29.75765625 27.7578125 30.41765625 27.7578125 31.09765625 C28.4178125 31.09765625 29.0778125 31.09765625 29.7578125 31.09765625 C29.7578125 34.72765625 29.7578125 38.35765625 29.7578125 42.09765625 C25.84480129 40.14115065 23.86561835 38.42575647 20.84375 35.34375 C19.45542969 33.93899414 19.45542969 33.93899414 18.0390625 32.50585938 C17.06996148 31.51596852 16.10121537 30.52573011 15.1328125 29.53515625 C13.22715879 27.59314717 11.31745619 25.65531437 9.40625 23.71875 C8.56239746 22.85693115 7.71854492 21.9951123 6.84912109 21.10717773 C4.92143849 19.05561588 4.92143849 19.05561588 2.7578125 18.09765625 C2.7578125 17.43765625 2.7578125 16.77765625 2.7578125 16.09765625 C2.21382812 15.88109375 1.66984375 15.66453125 1.109375 15.44140625 C-2.03992448 13.64180655 -4.36866069 11.18303025 -6.8671875 8.59765625 C-7.35703125 8.09878906 -7.846875 7.59992187 -8.3515625 7.0859375 C-9.65231659 5.7603056 -10.9475605 4.42927259 -12.2421875 3.09765625 C-12.9021875 2.43765625 -13.5621875 1.77765625 -14.2421875 1.09765625 C-9.46939852 0.149007 -4.84752773 -0.03405796 0 0 Z " fill="#1870EA" transform="translate(71.2421875,30.90234375)"/>
<path d="M0 0 C4.6 2.2 4.6 2.2 6 5 C6.51968957 9.4131016 6.85380637 12.86159151 4.125 16.5 C0.27574306 19.21712255 -2.261487 19.48188268 -7 19 C-10.07504636 16.97177793 -11.66581629 15.50246824 -12.48046875 11.83984375 C-12.74203371 7.60531907 -12.34599732 5.51375359 -9.9375 1.9375 C-6.24975797 -0.49484049 -4.34495691 -0.62070813 0 0 Z " fill="#263959" transform="translate(242,7)"/>
<path d="M0 0 C2.95857409 -0.05379226 5.91617721 -0.09357093 8.875 -0.125 C9.71675781 -0.14175781 10.55851562 -0.15851562 11.42578125 -0.17578125 C12.23144531 -0.18222656 13.03710938 -0.18867187 13.8671875 -0.1953125 C14.98262939 -0.21102295 14.98262939 -0.21102295 16.12060547 -0.22705078 C18 0 18 0 20 2 C20.22705078 3.97119141 20.22705078 3.97119141 20.1953125 6.3515625 C20.18886719 7.20234375 20.18242188 8.053125 20.17578125 8.9296875 C20.15902344 9.81914063 20.14226562 10.70859375 20.125 11.625 C20.11597656 12.5221875 20.10695313 13.419375 20.09765625 14.34375 C20.0740497 16.56276586 20.0411231 18.78125077 20 21 C19.34 21.33 18.68 21.66 18 22 C17.66355469 21.32195312 17.32710937 20.64390625 16.98046875 19.9453125 C13.79793535 15.21231412 9.43958295 11.75402094 5.18554688 7.99609375 C4.52232422 7.39667969 3.85910156 6.79726562 3.17578125 6.1796875 C2.56645752 5.64069824 1.95713379 5.10170898 1.3293457 4.54638672 C0 3 0 3 0 0 Z " fill="#065AD4" transform="translate(50,63)"/>
<path d="M0 0 C3.62493334 -0.05787784 7.24974857 -0.0935542 10.875 -0.125 C11.90753906 -0.14175781 12.94007812 -0.15851562 14.00390625 -0.17578125 C14.99003906 -0.18222656 15.97617188 -0.18867188 16.9921875 -0.1953125 C18.35899658 -0.21102295 18.35899658 -0.21102295 19.75341797 -0.22705078 C22 0 22 0 24 2 C24.14517744 4.9093558 24.18630796 7.719946 24.125 10.625 C24.11597656 11.42679688 24.10695313 12.22859375 24.09765625 13.0546875 C24.07406223 15.03658523 24.03819065 17.01832981 24 19 C21 19 21 19 18.875 17.125 C17.90425894 16.0948864 16.94854439 15.05058829 16 14 C14.88431641 12.76830078 14.88431641 12.76830078 13.74609375 11.51171875 C12.15558159 9.74760333 10.56944566 7.97952984 8.98828125 6.20703125 C5.93451554 2.81729131 4.51513589 1.71291619 0 1 C0 0.67 0 0.34 0 0 Z " fill="#065AD4" transform="translate(77,32)"/>
<path d="M0 0 C2.95857409 -0.05379226 5.91617721 -0.09357093 8.875 -0.125 C9.71675781 -0.14175781 10.55851562 -0.15851562 11.42578125 -0.17578125 C12.23144531 -0.18222656 13.03710938 -0.18867187 13.8671875 -0.1953125 C14.98262939 -0.21102295 14.98262939 -0.21102295 16.12060547 -0.22705078 C18 0 18 0 20 2 C20.1953125 4.6015625 20.1953125 4.6015625 20.125 7.625 C20.10695313 8.62789062 20.08890625 9.63078125 20.0703125 10.6640625 C20.04710938 11.43492188 20.02390625 12.20578125 20 13 C19.01 13.495 19.01 13.495 18 14 C17.649375 13.319375 17.29875 12.63875 16.9375 11.9375 C14.08220997 7.60851189 10.93740001 2.87813882 5.765625 1.33203125 C3.34292168 0.99687577 3.34292168 0.99687577 0 1 C0 0.67 0 0.34 0 0 Z " fill="#0152CC" transform="translate(50,63)"/>
<path d="M0 0 C2.29141286 -0.05384521 4.58318188 -0.09272087 6.875 -0.125 C8.78925781 -0.15980469 8.78925781 -0.15980469 10.7421875 -0.1953125 C14 0 14 0 16 2 C16.1953125 4.6015625 16.1953125 4.6015625 16.125 7.625 C16.10695313 8.62789062 16.08890625 9.63078125 16.0703125 10.6640625 C16.04710938 11.43492188 16.02390625 12.20578125 16 13 C15.34 12.67 14.68 12.34 14 12 C14 11.34 14 10.68 14 10 C13.34 10 12.68 10 12 10 C12 9.34 12 8.68 12 8 C11.4225 7.7525 10.845 7.505 10.25 7.25 C7.6953267 5.83073705 6.05930146 4.05930146 4 2 C2.68252676 1.30251417 1.35085807 0.63040043 0 0 Z " fill="#0151CC" transform="translate(85,32)"/>
</svg>
