<?xml version="1.0" encoding="UTF-8"?>
<svg version="1.1" xmlns="http://www.w3.org/2000/svg" width="225" height="225">
<path d="M0 0 C74.25 0 148.5 0 225 0 C225 74.25 225 148.5 225 225 C150.75 225 76.5 225 0 225 C0 150.75 0 76.5 0 0 Z " fill="#FDFDFD" transform="translate(0,0)"/>
<path d="M0 0 C5.63898282 4.11680341 7.93980792 8.02607167 9.5625 14.8125 C9.87234323 17.58956314 9.94381614 20.33200228 9.9375 23.125 C9.93508301 24.24213379 9.93508301 24.24213379 9.93261719 25.38183594 C9.74597632 33.80263289 7.39117757 40.56748832 1.5625 46.8125 C4.5325 47.8025 7.5025 48.7925 10.5625 49.8125 C9.75 52.25 9.75 52.25 8.5625 54.8125 C7.5725 55.1425 6.5825 55.4725 5.5625 55.8125 C3.86328125 54.8515625 3.86328125 54.8515625 1.875 53.4375 C-3.13523486 50.42971098 -7.98117532 50.22138017 -13.67651367 50.26611328 C-18.75678874 50.21504272 -21.50350063 48.97592217 -25.4375 45.8125 C-31.47825593 38.93275019 -31.80235088 34.53085181 -31.8125 25.625 C-31.83699219 24.51318359 -31.86148438 23.40136719 -31.88671875 22.25585938 C-31.9130622 14.84017718 -31.18101356 8.93368364 -26.06054688 3.29663086 C-19.12208143 -2.99842083 -8.23194088 -4.89300411 0 0 Z " fill="#C37C0A" transform="translate(165.4375,126.1875)"/>
<path d="M0 0 C3.63 0 7.26 0 11 0 C13.50557282 5.38698156 15.24606277 10.87825984 16.94921875 16.56640625 C18.28388153 20.92762776 19.76472446 25.23263249 21.265625 29.5390625 C22 32 22 32 22 35 C22.66 35 23.32 35 24 35 C24.15855469 34.46375 24.31710938 33.9275 24.48046875 33.375 C27.80859788 22.19542813 31.25210186 11.04643661 35 0 C38.63 0 42.26 0 46 0 C49.83104217 16.96604387 50.27690323 33.67816455 50 51 C47.03 51 44.06 51 41 51 C40.01 32.19 40.01 32.19 39 13 C36.76015953 16.35976071 35.75846258 19.67716806 34.625 23.5 C33.14308873 28.38651023 31.60635547 33.21638541 29.8125 38 C28.20948722 42.28984391 27.01102918 46.53462112 26 51 C23.69 51 21.38 51 19 51 C17.28331325 45.94886231 15.57454752 40.89514066 13.87304688 35.83886719 C13.29318362 34.11938455 12.71116771 32.40062629 12.12695312 30.68261719 C11.28728465 28.21216402 10.45540815 25.7392039 9.625 23.265625 C9.36251465 22.49881409 9.1000293 21.73200317 8.82958984 20.94195557 C7.65479085 17.41903595 7 14.7525475 7 11 C6.34 11 5.68 11 5 11 C5.01160156 11.96035156 5.02320313 12.92070312 5.03515625 13.91015625 C5.1334386 26.29526759 4.6165138 38.63201171 4 51 C1.36 51 -1.28 51 -4 51 C-4.25131798 41.50576524 -3.90049121 32.15231876 -3.125 22.6875 C-3.04652832 21.69878906 -2.96805664 20.71007812 -2.88720703 19.69140625 C-2.30885376 13.03090794 -1.27912847 6.56225153 0 0 Z " fill="#186289" transform="translate(4,125)"/>
<path d="M0 0 C3.46700737 2.36386866 4.24232646 3.95504879 5.75 7.875 C6.14732514 11.19782076 6.12425808 14.47015254 6.0625 17.8125 C6.06733398 19.11477539 6.06733398 19.11477539 6.07226562 20.44335938 C6.02928137 25.61319346 5.58644276 30.0237826 3.75 34.875 C0.56980888 37.82803461 -2.03153336 39.1241305 -6.3125 39.375 C-10.85390999 38.79831302 -12.32789577 38.38152508 -15.25 34.875 C-19.2487063 26.76472069 -19.98744918 15.88033716 -17.48828125 7.2421875 C-13.65787074 -0.96367218 -8.57233219 -2.96734576 0 0 Z " fill="#FDFBF8" transform="translate(160.25,131.125)"/>
<path d="M0 0 C3.77647754 0.41960862 4.93172846 0.84950345 8 2.75 C11.89332375 5.14538393 15.11359693 5.90143311 19.625 6.5625 C31.29455085 8.77264221 41.04529423 18.05861772 47.9375 27.4375 C48.370625 28.02402344 48.80375 28.61054687 49.25 29.21484375 C52.81240904 34.48052961 55.11718304 40.30769599 57.5078125 46.16796875 C60.18030039 52.27964188 61.93825324 54.83265787 68.0625 57.75 C74.12512434 60.84580817 79.38555123 64.32096844 83.9375 69.4375 C83.9375 70.0975 83.9375 70.7575 83.9375 71.4375 C83.08285156 71.55867188 82.22820312 71.67984375 81.34765625 71.8046875 C80.24292969 71.97226563 79.13820313 72.13984375 78 72.3125 C76.89785156 72.47492188 75.79570312 72.63734375 74.66015625 72.8046875 C73.31244141 73.11792969 73.31244141 73.11792969 71.9375 73.4375 C71.6075 74.0975 71.2775 74.7575 70.9375 75.4375 C71.65292969 75.67597656 72.36835938 75.91445312 73.10546875 76.16015625 C76.38202824 77.63799757 78.58492623 79.47051122 81.25 81.875 C82.13300781 82.65746094 83.01601562 83.43992187 83.92578125 84.24609375 C85.9375 86.4375 85.9375 86.4375 85.9375 89.4375 C85.42960937 89.03917969 84.92171875 88.64085938 84.3984375 88.23046875 C80.37641091 85.13486402 76.50866121 82.67228992 71.9375 80.4375 C68.10726887 77.82597877 66.29955262 75.89512676 64.9375 71.4375 C68.14932149 69.53141902 70.47632603 69.21483753 74.1875 69.3125 C75.07953125 69.33054687 75.9715625 69.34859375 76.890625 69.3671875 C77.56609375 69.39039062 78.2415625 69.41359375 78.9375 69.4375 C74.33168354 64.57097695 69.03193479 60.69314057 62.375 59.5625 C58.70881254 58.49585661 57.92470627 57.41760645 55.8046875 54.12109375 C53.65441133 49.98104002 51.79245099 45.71580541 49.9375 41.4375 C43.69873831 27.73422494 35.94767117 18.62133864 22.4375 11.625 C19.55648518 10.64751283 16.97446865 10.03422725 14 9.5 C9.76161032 8.73760673 6.38678611 7.41883783 2.62890625 5.33984375 C0.77560106 4.29045987 0.77560106 4.29045987 -2.0625 3.4375 C-1.16109902 6.66752017 -0.38782338 9.0510927 1.7890625 11.63671875 C4.42277056 15.07011635 5.92436328 18.58313247 7.5625 22.5625 C9.89595981 28.17808142 9.89595981 28.17808142 12.9375 33.4375 C12.67220142 35.77954445 12.32770929 38.11300172 11.9375 40.4375 C11.8250239 42.99829316 11.76295869 45.56177068 11.75 48.125 C11.72873047 50.04892578 11.72873047 50.04892578 11.70703125 52.01171875 C11.91943012 55.16890202 12.15777368 56.87094731 13.9375 59.4375 C14.5975 59.7675 15.2575 60.0975 15.9375 60.4375 C15.96328125 59.82261719 15.9890625 59.20773438 16.015625 58.57421875 C16.07234375 57.76597656 16.1290625 56.95773438 16.1875 56.125 C16.23390625 55.32449219 16.2803125 54.52398437 16.328125 53.69921875 C17.11658407 50.77282257 18.4134968 49.99733398 20.9375 48.4375 C21.75154297 50.00951172 21.75154297 50.00951172 22.58203125 51.61328125 C23.30439559 52.99234044 24.02706801 54.37123829 24.75 55.75 C25.28463867 56.78543945 25.28463867 56.78543945 25.83007812 57.84179688 C26.18134766 58.50888672 26.53261719 59.17597656 26.89453125 59.86328125 C27.21397705 60.47598877 27.53342285 61.08869629 27.86254883 61.7199707 C28.89826699 63.52318313 28.89826699 63.52318313 30.56518555 65.03588867 C31.9375 66.4375 31.9375 66.4375 31.9375 68.4375 C28.30554504 67.22684835 27.50853808 65.90058874 25.25 62.875 C24.31607422 61.63556641 24.31607422 61.63556641 23.36328125 60.37109375 C22.65751953 59.41396484 22.65751953 59.41396484 21.9375 58.4375 C21.504375 59.365625 21.504375 59.365625 21.0625 60.3125 C19.9375 62.4375 19.9375 62.4375 17.9375 64.4375 C15.5625 64.4375 15.5625 64.4375 12.9375 63.4375 C7.35752987 56.30753817 7.63855131 50.1585548 7.9375 41.4375 C8.1406116 39.91296825 8.36473634 38.3908213 8.625 36.875 C9.00225435 32.72520211 8.34817052 32.58382115 5.9375 29.4375 C5.11457544 27.39522542 4.34806005 25.32972942 3.625 23.25 C1.70405563 18.03182491 -0.52450515 13.82403239 -3.92578125 9.4375 C-5.36071211 6.91281065 -5.41541297 5.29844784 -5.0625 2.4375 C-3.0625 0.4375 -3.0625 0.4375 0 0 Z " fill="#236587" transform="translate(138.0625,38.5625)"/>
<path d="M0 0 C1.87982261 0.71164713 3.72572181 1.51177914 5.5625 2.328125 C5.5625 3.978125 5.5625 5.628125 5.5625 7.328125 C4.3559375 7.080625 4.3559375 7.080625 3.125 6.828125 C-4.59966727 5.69066491 -4.59966727 5.69066491 -12 7.515625 C-13.61772244 9.27535542 -13.61772244 9.27535542 -13.9375 11.765625 C-13.28342843 15.1177418 -11.96705399 16.07191904 -9.4375 18.328125 C-7.82484583 19.40060558 -6.17690969 20.42168643 -4.5 21.390625 C-3.66597656 21.87660156 -2.83195312 22.36257812 -1.97265625 22.86328125 C-1.13605469 23.34667969 -0.29945312 23.83007812 0.5625 24.328125 C4.50315444 26.60955652 7.17590345 28.35046408 9.5625 32.328125 C10.17563558 37.15656767 10.11660111 39.2609673 7.875 43.578125 C5.13563507 46.83574816 2.38507278 49.41683861 -1.4375 51.328125 C-9.42265647 51.95989484 -15.91170844 52.30015667 -22.4375 47.328125 C-22.1075 45.678125 -21.7775 44.028125 -21.4375 42.328125 C-20.72722656 42.65296875 -20.01695313 42.9778125 -19.28515625 43.3125 C-16.28337706 44.3830934 -14.04774291 44.59577586 -10.875 44.578125 C-9.48087891 44.58585937 -9.48087891 44.58585937 -8.05859375 44.59375 C-5.31854933 44.31607039 -3.68647953 43.91321812 -1.4375 42.328125 C-0.78141021 39.26637264 -0.4375 36.45591116 -0.4375 33.328125 C-1.2109375 32.95107422 -1.2109375 32.95107422 -2 32.56640625 C-5.18348366 30.94915574 -8.31645175 29.24917795 -11.4375 27.515625 C-12.05367187 27.18498047 -12.66984375 26.85433594 -13.3046875 26.51367188 C-17.26112854 24.30197039 -20.02592638 22.18547213 -22.4375 18.328125 C-23.40326165 14.52122735 -23.3642607 11.14419849 -22.4375 7.328125 C-16.60255116 -0.22298526 -9.17626863 -2.5293561 0 0 Z " fill="#C37E0D" transform="translate(120.4375,124.671875)"/>
<path d="M0 0 C2.64 0 5.28 0 8 0 C8.2673999 0.78238037 8.5347998 1.56476074 8.81030273 2.37084961 C10.01635209 5.89410746 11.22686365 9.41581581 12.4375 12.9375 C12.85837891 14.16919922 13.27925781 15.40089844 13.71289062 16.66992188 C14.11572266 17.83974609 14.51855469 19.00957031 14.93359375 20.21484375 C15.30540771 21.29886475 15.67722168 22.38288574 16.06030273 23.49975586 C16.76814287 25.90585315 16.76814287 25.90585315 18 27 C18.79467142 24.18831904 19.58579233 21.37571498 20.375 18.5625 C20.70757812 17.3878418 20.70757812 17.3878418 21.046875 16.18945312 C22.54812467 10.82469329 23.83307516 5.44746691 25 0 C27.31 0 29.62 0 32 0 C30.88354657 15.90946133 25.76218939 36.66310841 13.25 47.5625 C8.86543478 51.04842686 8.86543478 51.04842686 5.8359375 50.87890625 C5.02382812 50.77449219 4.21171875 50.67007813 3.375 50.5625 C2.55773438 50.46066406 1.74046875 50.35882813 0.8984375 50.25390625 C0.27195313 50.17011719 -0.35453125 50.08632812 -1 50 C-1 48.35 -1 46.7 -1 45 C0.8871875 44.8453125 0.8871875 44.8453125 2.8125 44.6875 C5.27135361 44.3611035 6.82493061 44.09847653 9 42.875 C11.11752559 38.90463952 10.12280345 34.49503509 9.08203125 30.29956055 C8.66893185 28.99205314 8.24531765 27.68783197 7.8125 26.38671875 C7.59053955 25.69109329 7.3685791 24.99546783 7.13989258 24.27876282 C6.43605912 22.07849469 5.71871199 19.88294807 5 17.6875 C4.28385598 15.47346147 3.57057786 13.25854435 2.86010742 11.04267883 C2.4188191 9.66918896 1.97379222 8.29689346 1.5246582 6.9259491 C0 2.22025414 0 2.22025414 0 0 Z " fill="#15587B" transform="translate(59,138)"/>
<path d="M0 0 C3.63 0 7.26 0 11 0 C14.83104217 16.96604387 15.27690323 33.67816455 15 51 C12.03 51 9.06 51 6 51 C5.34 38.46 4.68 25.92 4 13 C1.99006295 16.01490557 1.27376659 18.2149927 0.375 21.6875 C0.11460938 22.68136719 -0.14578125 23.67523438 -0.4140625 24.69921875 C-0.60742188 25.45847656 -0.80078125 26.21773437 -1 27 C-1.66 26.34 -2.32 25.68 -3 25 C-5.06874034 24.3574765 -5.06874034 24.3574765 -7 24 C-6.0361274 17.9250661 -4.64691308 12.625678 -1.90234375 7.10546875 C-0.74010624 4.5932433 -0.74010624 4.5932433 0 0 Z " fill="#246A8E" transform="translate(39,125)"/>
<path d="M0 0 C5.54267001 4.04648915 8.20440729 8.02203643 9.5625 14.8125 C9.70648572 17.82180155 9.68533929 20.80293749 9.5625 23.8125 C8.44875 23.915625 7.335 24.01875 6.1875 24.125 C4.99125 24.351875 3.795 24.57875 2.5625 24.8125 C1.9025 25.8025 1.2425 26.7925 0.5625 27.8125 C0.51351562 26.79929688 0.46453125 25.78609375 0.4140625 24.7421875 C0.33897436 23.39060089 0.26342919 22.03903962 0.1875 20.6875 C0.1565625 20.02234375 0.125625 19.3571875 0.09375 18.671875 C-0.15618722 14.42294231 -0.7341132 10.72616379 -2.4375 6.8125 C-6.66976258 4.64715636 -10.74390711 4.21513363 -15.4375 4.8125 C-19.98124612 8.34652476 -22.02381569 11.68581629 -22.7734375 17.3515625 C-23.03249762 19.83713934 -23.2536128 22.32034455 -23.4375 24.8125 C-26.0775 24.4825 -28.7175 24.1525 -31.4375 23.8125 C-31.91593637 16.58279479 -31.84671693 10.80032547 -27.4375 4.8125 C-20.63345804 -2.67959115 -8.92587289 -5.30547211 0 0 Z " fill="#DF8D0B" transform="translate(165.4375,126.1875)"/>
<path d="M0 0 C2.64 0 5.28 0 8 0 C8 14.85 8 29.7 8 45 C13.28 45 18.56 45 24 45 C24 46.65 24 48.3 24 50 C16.08 50 8.16 50 0 50 C0 33.5 0 17 0 0 Z " fill="#C27800" transform="translate(183,125)"/>
<path d="M0 0 C1.87982261 0.71164713 3.72572181 1.51177914 5.5625 2.328125 C5.5625 3.978125 5.5625 5.628125 5.5625 7.328125 C4.3559375 7.080625 4.3559375 7.080625 3.125 6.828125 C-4.59966727 5.69066491 -4.59966727 5.69066491 -12 7.515625 C-13.61772244 9.27535542 -13.61772244 9.27535542 -13.9375 11.765625 C-13.28199588 15.12508361 -11.98003057 16.07098052 -9.4375 18.328125 C-7.71858451 19.44021123 -5.9671253 20.50352815 -4.1875 21.515625 C-2.58944731 22.42780826 -1.00121845 23.35826146 0.5625 24.328125 C0.5625 24.658125 0.5625 24.988125 0.5625 25.328125 C-13.40158812 27.08798268 -13.40158812 27.08798268 -17.125 24.640625 C-20.88917072 20.87645428 -22.90121304 18.47139676 -23.125 13.015625 C-23.05517644 9.5384118 -22.85223239 7.86699498 -20.71484375 5.08984375 C-14.29364425 -0.53890282 -8.46848004 -2.33426052 0 0 Z " fill="#DF8E0D" transform="translate(120.4375,124.671875)"/>
<path d="M0 0 C1.67542976 0.28604898 3.34385343 0.61781233 5 1 C4.51179185 6.49234171 2.94233636 11.12113083 0.98828125 16.265625 C-0.29015607 19.80280335 -1.17002822 23.33429128 -2 27 C-4.31 27 -6.62 27 -9 27 C-9.87279044 24.48430992 -10.72318309 21.96435594 -11.5625 19.4375 C-11.9327832 18.38079102 -11.9327832 18.38079102 -12.31054688 17.30273438 C-13.91320327 12.40447468 -14.10675949 9.04337708 -13 4 C-10.625 4.3125 -10.625 4.3125 -8 5 C-6 8 -6 8 -6 11 C-5.34 11 -4.68 11 -4 11 C-3.79503906 10.28972656 -3.59007812 9.57945312 -3.37890625 8.84765625 C-3.10949219 7.92855469 -2.84007812 7.00945312 -2.5625 6.0625 C-2.29566406 5.14597656 -2.02882813 4.22945312 -1.75390625 3.28515625 C-1 1 -1 1 0 0 Z " fill="#145879" transform="translate(32,149)"/>
<path d="M0 0 C2.64 0 5.28 0 8 0 C8 14.52 8 29.04 8 44 C7.67 44 7.34 44 7 44 C7 37.73 7 31.46 7 25 C4.69 25 2.38 25 0 25 C0 16.75 0 8.5 0 0 Z " fill="#DD8C10" transform="translate(183,125)"/>
<path d="M0 0 C0.66 0 1.32 0 2 0 C2.20496094 0.59296875 2.40992188 1.1859375 2.62109375 1.796875 C4.54896467 4.87709936 6.80886694 5.68216746 10.0625 7.25 C16.13629236 10.37462874 21.4325711 13.86606829 26 19 C26 19.66 26 20.32 26 21 C25.14535156 21.12117188 24.29070312 21.24234375 23.41015625 21.3671875 C22.30542969 21.53476563 21.20070312 21.70234375 20.0625 21.875 C18.96035156 22.03742188 17.85820312 22.19984375 16.72265625 22.3671875 C15.82417969 22.57601562 14.92570312 22.78484375 14 23 C13.67 23.66 13.34 24.32 13 25 C14.07314453 25.35771484 14.07314453 25.35771484 15.16796875 25.72265625 C18.44452824 27.20049757 20.64742623 29.03301122 23.3125 31.4375 C24.19550781 32.21996094 25.07851562 33.00242188 25.98828125 33.80859375 C28 36 28 36 28 39 C27.49210937 38.60167969 26.98421875 38.20335937 26.4609375 37.79296875 C22.43891091 34.69736402 18.57116121 32.23478992 14 30 C10.16976887 27.38847877 8.36205262 25.45762676 7 21 C10.21182149 19.09391902 12.53882603 18.77733753 16.25 18.875 C17.14203125 18.89304687 18.0340625 18.91109375 18.953125 18.9296875 C19.62859375 18.95289062 20.3040625 18.97609375 21 19 C16.27599333 14.00859673 10.68398072 10.30948566 4.0625 8.4375 C0.18355494 7.31571449 0.18355494 7.31571449 -1.5625 4.3125 C-1.706875 3.549375 -1.85125 2.78625 -2 2 C-1.34 2 -0.68 2 0 2 C0 1.34 0 0.68 0 0 Z " fill="#23698E" transform="translate(196,89)"/>
<path d="M0 0 C0.33 0 0.66 0 1 0 C1 9.24 1 18.48 1 28 C-1.64 28 -4.28 28 -7 28 C-7.09744014 19.27369392 -7.16711095 10.66996704 -6 2 C-4.02 2 -2.04 2 0 2 C0 1.34 0 0.68 0 0 Z " fill="#175A7C" transform="translate(7,148)"/>
<path d="M0 0 C5.875 0.875 5.875 0.875 7 2 C7 4.66666667 7 7.33333333 7 10 C7.33 10.33 7.66 10.66 8 11 C8.07313567 13.53049402 8.09247527 16.03304837 8.0625 18.5625 C8.05798828 19.27341797 8.05347656 19.98433594 8.04882812 20.71679688 C8.03700864 22.47790013 8.01907263 24.23896036 8 26 C5.69 26 3.38 26 1 26 C-0.15664737 20.51730931 -0.11416255 15.19660726 -0.0625 9.625 C-0.05798828 8.69816406 -0.05347656 7.77132812 -0.04882812 6.81640625 C-0.03711574 4.54420291 -0.02071372 2.27213612 0 0 Z " fill="#0A5375" transform="translate(45,149)"/>
<path d="M0 0 C4.43081205 0.49231245 6.65484122 1.85467839 10.3828125 4.125 C14.95156792 6.47225049 19.93641234 7.3966645 24.9375 8.4375 C25.2675 9.7575 25.5975 11.0775 25.9375 12.4375 C24.98875 12.14875 24.04 11.86 23.0625 11.5625 C20.06013935 10.68908599 17.07986693 10.09564543 14 9.5625 C9.78621402 8.75956822 6.37261483 7.41099777 2.62890625 5.33984375 C0.77560106 4.29045987 0.77560106 4.29045987 -2.0625 3.4375 C-1.7325 5.4175 -1.4025 7.3975 -1.0625 9.4375 C-2.0525 9.4375 -3.0425 9.4375 -4.0625 9.4375 C-4.6875 6.0625 -4.6875 6.0625 -5.0625 2.4375 C-3.0625 0.4375 -3.0625 0.4375 0 0 Z " fill="#1E6080" transform="translate(138.0625,38.5625)"/>
<path d="M0 0 C2.64 0 5.28 0 8 0 C8.5345256 1.24420647 9.05208611 2.49570936 9.5625 3.75 C9.85253906 4.44609375 10.14257812 5.1421875 10.44140625 5.859375 C11.07831803 8.30012784 10.80248831 9.6403655 10 12 C8.02 12 6.04 12 4 12 C3.3291288 10.3767313 2.66342971 8.75132422 2 7.125 C1.62875 6.22007812 1.2575 5.31515625 0.875 4.3828125 C0 2 0 2 0 0 Z " fill="#146186" transform="translate(59,138)"/>
<path d="M0 0 C2.31 0 4.62 0 7 0 C6.03644647 9.41002278 6.03644647 9.41002278 5 14 C4.67 13.34 4.34 12.68 4 12 C2.35 12 0.7 12 -1 12 C-2.09898702 8.70303895 -1.87124444 7.59505097 -1.0625 4.3125 C-0.86785156 3.50425781 -0.67320313 2.69601563 -0.47265625 1.86328125 C-0.31667969 1.24839844 -0.16070312 0.63351563 0 0 Z " fill="#115F85" transform="translate(84,138)"/>
<path d="M0 0 C2.89932357 2.39509338 3.50168276 4.31245243 4 8 C2.02 7.34 0.04 6.68 -2 6 C-2.33 7.65 -2.66 9.3 -3 11 C-5.12508244 7.81237635 -5.5020163 5.73487777 -6 2 C-4.35 2 -2.7 2 -1 2 C-0.67 1.34 -0.34 0.68 0 0 Z " fill="#1E5F7F" transform="translate(21,147)"/>
<path d="M0 0 C2.7652393 1.21670529 5.25053897 2.75429298 7.75 4.4375 C8.36359375 4.84871094 8.9771875 5.25992188 9.609375 5.68359375 C10.06828125 6.11800781 10.5271875 6.55242188 11 7 C11 7.99 11 8.98 11 10 C6.97563355 9.3808667 4.14838867 7.51871094 1 5 C0.125 2.25 0.125 2.25 0 0 Z " fill="#175B7D" transform="translate(163,47)"/>
<path d="M0 0 C4.65304216 2.88045467 8.21919074 6.03915221 12 10 C11.67 10.66 11.34 11.32 11 12 C10.49210938 11.60167969 9.98421875 11.20335938 9.4609375 10.79296875 C5.46096502 7.71433825 1.63120857 5.08404386 -3 3 C-2.01 2.01 -1.02 1.02 0 0 Z " fill="#347595" transform="translate(213,116)"/>
<path d="M0 0 C3.66584691 4.58230864 6.46589606 9.72061678 9 15 C5.35998011 13.78666004 4.65431759 12.49699555 2.4375 9.4375 C1.33882221 7.92297857 0.20209225 6.43382087 -1 5 C-1.66 5 -2.32 5 -3 5 C-3 4.01 -3 3.02 -3 2 C-2.01 2 -1.02 2 0 2 C0 1.34 0 0.68 0 0 Z " fill="#316C8C" transform="translate(161,92)"/>
<path d="M0 0 C4.95 0 9.9 0 15 0 C15 0.66 15 1.32 15 2 C11.0186217 3.3271261 7.14954773 3.06915913 3 3 C3 2.34 3 1.68 3 1 C2.01 0.67 1.02 0.34 0 0 Z " fill="#3E7A9B" transform="translate(207,108)"/>
<path d="M0 0 C8.57142857 -0.28571429 8.57142857 -0.28571429 12 2 C12 2.99 12 3.98 12 5 C6.06 3.515 6.06 3.515 0 2 C0 1.34 0 0.68 0 0 Z " fill="#095474" transform="translate(152,46)"/>
<path d="M0 0 C0.33 0 0.66 0 1 0 C1.33820166 1.5823006 1.67035939 3.16589375 2 4.75 C2.185625 5.63171875 2.37125 6.5134375 2.5625 7.421875 C3 10 3 10 3 14 C2.34 14 1.68 14 1 14 C-1.25068913 9.49862174 -1.24661958 5.93239162 -1 1 C-0.67 0.67 -0.34 0.34 0 0 Z " fill="#10567B" transform="translate(147,84)"/>
<path d="M0 0 C1.32 0 2.64 0 4 0 C4.66 2.31 5.32 4.62 6 7 C4.68 7.33 3.36 7.66 2 8 C0.74335022 5.09399739 0 3.20395416 0 0 Z " fill="#296D90" transform="translate(186,72)"/>
<path d="M0 0 C1.32 0 2.64 0 4 0 C5.8125 2.375 5.8125 2.375 7 5 C6.67 5.66 6.34 6.32 6 7 C5.01 7 4.02 7 3 7 C0 2.77777778 0 2.77777778 0 0 Z " fill="#186489" transform="translate(182,66)"/>
<path d="M0 0 C2 2 2 2 2.1953125 4.8203125 C2.16050781 6.45613281 2.16050781 6.45613281 2.125 8.125 C2.10695312 9.22070312 2.08890625 10.31640625 2.0703125 11.4453125 C2.04710937 12.28835937 2.02390625 13.13140625 2 14 C1.67 14 1.34 14 1 14 C0.67 12.02 0.34 10.04 0 8 C-0.33 8 -0.66 8 -1 8 C-0.67 5.36 -0.34 2.72 0 0 Z " fill="#477A95" transform="translate(147,77)"/>
<path d="M0 0 C0.99 0.99 1.98 1.98 3 3 C2.67 3.66 2.34 4.32 2 5 C-0.5625 5.625 -0.5625 5.625 -3 6 C-2.42655063 3.13275314 -2.1385485 2.1385485 0 0 Z " fill="#286587" transform="translate(158,87)"/>
<path d="M0 0 C3 1 3 1 4.1875 3.0625 C4.455625 3.701875 4.72375 4.34125 5 5 C3.68 5.33 2.36 5.66 1 6 C-0.0625 4.125 -0.0625 4.125 -1 2 C-0.67 1.34 -0.34 0.68 0 0 Z " fill="#296C91" transform="translate(180,61)"/>
<path d="M0 0 C0.99 1.32 1.98 2.64 3 4 C2.67 4.66 2.34 5.32 2 6 C0.35 5.67 -1.3 5.34 -3 5 C-3 4.01 -3 3.02 -3 2 C-2.01 2 -1.02 2 0 2 C0 1.34 0 0.68 0 0 Z " fill="#4D7E99" transform="translate(161,92)"/>
<path d="M0 0 C0.99 0 1.98 0 3 0 C2.67 2.31 2.34 4.62 2 7 C1.34 7 0.68 7 0 7 C0 4.69 0 2.38 0 0 Z " fill="#15577F" transform="translate(148,72)"/>
<path d="M0 0 C2.46800047 1.15173355 4.04783565 2.04783565 6 4 C4.02 4.99 4.02 4.99 2 6 C1.34 4.02 0.68 2.04 0 0 Z " fill="#326D8A" transform="translate(163,47)"/>
<path d="M0 0 C2.31 0.33 4.62 0.66 7 1 C6.67 1.99 6.34 2.98 6 4 C4.35 3.67 2.7 3.34 1 3 C0.67 2.01 0.34 1.02 0 0 Z " fill="#0F5A78" transform="translate(150,99)"/>
<path d="M0 0 C4 4.75 4 4.75 4 7 C2.0625 6.625 2.0625 6.625 0 6 C-1.24546405 3.50907189 -0.7767578 2.58919267 0 0 Z " fill="#36708D" transform="translate(146,65)"/>
</svg>
