<?xml version="1.0" encoding="UTF-8"?>
<svg version="1.1" xmlns="http://www.w3.org/2000/svg" width="200" height="200">
<path d="M0 0 C66 0 132 0 200 0 C200 66 200 132 200 200 C134 200 68 200 0 200 C0 134 0 68 0 0 Z " fill="#024F5E" transform="translate(0,0)"/>
<path d="M0 0 C31.68 0 63.36 0 96 0 C96.33 23.1 96.66 46.2 97 70 C98.98 70.99 98.98 70.99 101 72 C101 72.66 101 73.32 101 74 C99.515 74.495 99.515 74.495 98 75 C97.34 74.67 96.68 74.34 96 74 C96.33 74.66 96.66 75.32 97 76 C97.07065617 78.04055005 97.08421976 80.08334257 97.0625 82.125 C97.05347656 83.22070312 97.04445313 84.31640625 97.03515625 85.4453125 C97.02355469 86.28835937 97.01195312 87.13140625 97 88 C99.97 88 102.94 88 106 88 C106.125 93.75 106.125 93.75 105 96 C70.35 96 35.7 96 0 96 C0 64.32 0 32.64 0 0 Z " fill="#004E5D" transform="translate(52,52)"/>
<path d="M0 0 C38.28 0 76.56 0 116 0 C116 26.4 116 52.8 116 80 C113.03 80 110.06 80 107 80 C107 56.57 107 33.14 107 9 C74.66 9 42.32 9 9 9 C9 41.34 9 73.68 9 107 C44.31 107 79.62 107 116 107 C116 109.97 116 112.94 116 116 C77.72 116 39.44 116 0 116 C0 77.72 0 39.44 0 0 Z " fill="#F3FAFA" transform="translate(42,42)"/>
<path d="M0 0 C2.97 0 5.94 0 9 0 C9 2.97 9 5.94 9 9 C6.03 9 3.06 9 0 9 C0 6.03 0 3.06 0 0 Z " fill="#E8F5F8" transform="translate(149,131)"/>
</svg>
