<?xml version="1.0" encoding="UTF-8"?>
<svg version="1.1" xmlns="http://www.w3.org/2000/svg" width="269" height="148">
<path d="M0 0 C88.77 0 177.54 0 269 0 C269 48.84 269 97.68 269 148 C180.23 148 91.46 148 0 148 C0 99.16 0 50.32 0 0 Z " fill="#FEFEFE" transform="translate(0,0)"/>
<path d="M0 0 C9.58749377 5.47493004 14.62394306 11.49788612 19.5625 21.375 C19.63283769 23.24879605 19.6468022 25.12501102 19.625 27 C19.61597656 28.00289062 19.60695313 29.00578125 19.59765625 30.0390625 C19.58605469 30.80992188 19.57445312 31.58078125 19.5625 32.375 C20.7175 32.41625 21.8725 32.4575 23.0625 32.5 C30.54093564 33.45132044 35.53673853 38.9723906 40.23828125 44.46875 C44.16622245 50.12313143 45.06164463 54.53633954 45 61.25 C45.01998047 62.01441406 45.03996094 62.77882813 45.06054688 63.56640625 C45.05299582 72.4615459 40.90266859 78.91368235 34.97265625 85.3203125 C29.83552694 89.69977768 23.13126654 92.63217532 16.3125 92.6875 C15.405 92.584375 14.4975 92.48125 13.5625 92.375 C13.55992187 92.931875 13.55734375 93.48875 13.5546875 94.0625 C13.21959444 100.67500301 11.17566551 104.65480049 6.5625 109.375 C3.4375 111.75 3.4375 111.75 0.5625 113.375 C-0.05109375 113.72949219 -0.6646875 114.08398438 -1.296875 114.44921875 C-6.28252086 116.6054196 -12.03500659 116.12360302 -17.1328125 114.53515625 C-24.2938297 111.28313468 -29.41006509 106.51801916 -32.875 99.4375 C-33.37312031 96.72551164 -33.49501721 94.42405348 -33.47265625 91.68359375 C-33.46758057 90.87591553 -33.46250488 90.0682373 -33.45727539 89.23608398 C-33.45074951 88.62192627 -33.44422363 88.00776855 -33.4375 87.375 C-35.186073 87.4064209 -35.186073 87.4064209 -36.9699707 87.43847656 C-41.29162327 87.51083287 -45.61322224 87.55678362 -49.93530273 87.59472656 C-51.80648804 87.61485207 -53.67761039 87.64215549 -55.54858398 87.67675781 C-58.23697432 87.72523581 -60.92453388 87.74795872 -63.61328125 87.765625 C-64.86967155 87.79659271 -64.86967155 87.79659271 -66.15144348 87.82818604 C-71.97490196 87.83044 -71.97490196 87.83044 -74.15827942 85.68084717 C-75.69228637 82.91573719 -75.81766588 81.17949092 -75.82568359 78.02734375 C-75.83986832 76.42548218 -75.83986832 76.42548218 -75.8543396 74.79125977 C-75.84826691 73.64326904 -75.84219421 72.49527832 -75.8359375 71.3125 C-75.84024277 69.53734009 -75.84024277 69.53734009 -75.84463501 67.72631836 C-75.84667607 65.22476727 -75.84114337 62.72320023 -75.82861328 60.22167969 C-75.81256121 56.38961141 -75.82846162 52.55859792 -75.84765625 48.7265625 C-75.84567383 46.29687267 -75.84183017 43.86718349 -75.8359375 41.4375 C-75.84201019 40.28950928 -75.84808289 39.14151855 -75.8543396 37.95874023 C-75.84488312 36.89083252 -75.83542664 35.8229248 -75.82568359 34.72265625 C-75.82329681 33.78429932 -75.82091003 32.84594238 -75.81845093 31.87915039 C-75.36581177 28.90376316 -74.52328701 27.52155198 -72.4375 25.375 C-69.71020508 24.92089844 -69.71020508 24.92089844 -66.45703125 24.984375 C-65.29365234 24.99726562 -64.13027344 25.01015625 -62.93164062 25.0234375 C-61.71669922 25.05695312 -60.50175781 25.09046875 -59.25 25.125 C-58.02345703 25.14304687 -56.79691406 25.16109375 -55.53320312 25.1796875 C-52.50052241 25.22688876 -49.46939913 25.29272323 -46.4375 25.375 C-46.29054688 24.43188965 -46.14359375 23.4887793 -45.9921875 22.51708984 C-44.42964095 13.66586887 -38.54087195 7.47258361 -31.4375 2.375 C-21.52340468 -3.91869379 -10.72851661 -5.08263475 0 0 Z " fill="#066D71" transform="translate(149.4375,17.625)"/>
<path d="M0 0 C8.48948115 -0.36626421 15.87114119 1.84293897 22.53515625 7.203125 C28.62281093 13.31696314 32.89579848 18.85722942 32.99414062 27.73828125 C32.98705078 28.51042969 32.97996094 29.28257813 32.97265625 30.078125 C32.99263672 30.84253906 33.01261719 31.60695313 33.03320312 32.39453125 C33.02565207 41.2896709 28.87532484 47.74180735 22.9453125 54.1484375 C17.80818319 58.52790268 11.10392279 61.46030032 4.28515625 61.515625 C3.37765625 61.4125 2.47015625 61.309375 1.53515625 61.203125 C1.53257812 61.76 1.53 62.316875 1.52734375 62.890625 C1.19225069 69.50312801 -0.85167824 73.48292549 -5.46484375 78.203125 C-8.58984375 80.578125 -8.58984375 80.578125 -11.46484375 82.203125 C-12.0784375 82.55761719 -12.69203125 82.91210938 -13.32421875 83.27734375 C-18.30986461 85.4335446 -24.06235034 84.95172802 -29.16015625 83.36328125 C-36.32117345 80.11125968 -41.43740884 75.34614416 -44.90234375 68.265625 C-45.46484375 65.203125 -45.46484375 65.203125 -45.46484375 56.203125 C-58.33484375 56.203125 -71.20484375 56.203125 -84.46484375 56.203125 C-84.46484375 55.873125 -84.46484375 55.543125 -84.46484375 55.203125 C-71.26484375 55.203125 -58.06484375 55.203125 -44.46484375 55.203125 C-44.46484375 58.173125 -44.46484375 61.143125 -44.46484375 64.203125 C-41.33903735 64.08956798 -38.2147485 63.96281917 -35.08984375 63.828125 C-33.75566406 63.78171875 -33.75566406 63.78171875 -32.39453125 63.734375 C-31.54375 63.69570312 -30.69296875 63.65703125 -29.81640625 63.6171875 C-29.03088379 63.5857666 -28.24536133 63.5543457 -27.43603516 63.52197266 C-25.23481436 63.3631785 -25.23481436 63.3631785 -23.46484375 61.203125 C-23.20995465 59.042228 -23.20995465 59.042228 -23.32055664 56.52905273 C-23.34400902 55.07129677 -23.34400902 55.07129677 -23.36793518 53.58409119 C-23.39089157 52.52895828 -23.41384796 51.47382538 -23.4375 50.38671875 C-23.45131511 48.15561428 -23.46229101 45.92449076 -23.47070312 43.69335938 C-23.49103672 40.17221754 -23.52700283 36.65473424 -23.61206055 33.13452148 C-24.07311784 12.49457166 -24.07311784 12.49457166 -20.10522461 7.66088867 C-13.87015546 2.43243385 -7.90339837 0.65131017 0 0 Z " fill="#1B9BA1" transform="translate(161.46484375,48.796875)"/>
<path d="M0 0 C1.6717202 -0.00922989 1.6717202 -0.00922989 3.37721252 -0.01864624 C4.5803862 -0.00427521 5.78355988 0.01009583 7.02319336 0.02490234 C8.25718369 0.02581879 9.49117401 0.02673523 10.76255798 0.02767944 C14.04183302 0.03527537 17.32033405 0.06129194 20.59942627 0.09460449 C23.93795745 0.12152242 27.27635431 0.11515607 30.61499023 0.11474609 C33.14689931 0.12457665 35.6788021 0.13623338 38.21069336 0.14990234 C39.41589127 0.15212799 40.62108917 0.15435364 41.86280823 0.15664673 C42.9741362 0.16940643 44.08546417 0.18216614 45.23046875 0.1953125 C46.2118129 0.2029361 47.19315704 0.21055969 48.20423889 0.21841431 C50.55053711 0.48583984 50.55053711 0.48583984 52.55053711 2.48583984 C52.77758789 4.73242187 52.77758789 4.73242187 52.74584961 7.49365234 C52.7394043 8.47978516 52.73295898 9.46591797 52.72631836 10.48193359 C52.70956055 11.51447266 52.69280273 12.54701172 52.67553711 13.61083984 C52.66651367 14.65111328 52.65749023 15.69138672 52.64819336 16.76318359 C52.62457458 19.33763077 52.5916386 21.91162197 52.55053711 24.48583984 C51.94145508 24.74921143 51.33237305 25.01258301 50.70483398 25.28393555 C49.90110352 25.63544678 49.09737305 25.98695801 48.26928711 26.34912109 C47.47458008 26.69499268 46.67987305 27.04086426 45.86108398 27.3972168 C42.50964272 28.97626124 39.1903887 30.84598825 36.55053711 33.48583984 C36.47140764 35.06842925 36.41223807 36.65203747 36.36303711 38.23583984 C36.02909893 42.00072355 35.65857745 44.06074393 32.73803711 46.54833984 C28.76461698 48.963556 25.78060685 49.6329445 21.17553711 49.67333984 C20.44592773 49.68751953 19.71631836 49.70169922 18.96459961 49.71630859 C16.55053711 49.48583984 16.55053711 49.48583984 13.71069336 48.23583984 C9.95623949 47.34479517 8.43259858 48.1417629 5.19311523 50.10498047 C4.58918945 50.49878906 3.98526367 50.89259766 3.36303711 51.29833984 C-3.30110124 55.43638596 -3.30110124 55.43638596 -6.44946289 56.48583984 C-7.10946289 57.14583984 -7.76946289 57.80583984 -8.44946289 58.48583984 C-8.52546866 50.86871729 -8.57804419 43.25169237 -8.61425781 35.63427734 C-8.62935304 33.04244329 -8.64983113 30.45063482 -8.67578125 27.85888672 C-8.71213116 24.13551525 -8.72918209 20.41248124 -8.74243164 16.68896484 C-8.7579155 15.5284259 -8.77339935 14.36788696 -8.78935242 13.17218018 C-8.78957901 12.09136169 -8.7898056 11.01054321 -8.79003906 9.89697266 C-8.7967009 8.9465509 -8.80336273 7.99612915 -8.81022644 7.01690674 C-8.00082985 1.33829284 -5.46720738 -0.0158651 0 0 Z " fill="#0A888D" transform="translate(82.449462890625,42.51416015625)"/>
<path d="M0 0 C0.33 0 0.66 0 1 0 C1 13.2 1 26.4 1 40 C1.99 40 2.98 40 4 40 C4.08696177 43.93736123 4.14037835 47.87447628 4.1875 51.8125 C4.21263672 52.93205078 4.23777344 54.05160156 4.26367188 55.20507812 C4.27333984 56.27822266 4.28300781 57.35136719 4.29296875 58.45703125 C4.3086792 59.44678955 4.32438965 60.43654785 4.34057617 61.45629883 C4 64 4 64 2.75976562 65.828125 C0.52950716 67.31331376 -0.78298077 67.34665139 -3.44921875 67.29296875 C-4.29677734 67.28330078 -5.14433594 67.27363281 -6.01757812 67.26367188 C-6.89865234 67.23853516 -7.77972656 67.21339844 -8.6875 67.1875 C-9.58017578 67.17396484 -10.47285156 67.16042969 -11.39257812 67.14648438 C-13.59530983 67.11114643 -15.7977312 67.05733969 -18 67 C-18 64.03 -18 61.06 -18 58 C-19.85516235 58.00785522 -19.85516235 58.00785522 -21.74780273 58.01586914 C-26.31924725 58.03391561 -30.89068859 58.04543071 -35.4621582 58.05493164 C-37.44393441 58.05997267 -39.42570689 58.06680538 -41.4074707 58.07543945 C-44.24952109 58.08751515 -47.09152247 58.09323045 -49.93359375 58.09765625 C-51.27108925 58.10539818 -51.27108925 58.10539818 -52.63560486 58.11329651 C-54.75740601 58.11349177 -56.8791078 58.0621003 -59 58 C-60 57 -60 57 -60.09765625 54.49609375 C-60.08605469 53.48675781 -60.07445313 52.47742188 -60.0625 51.4375 C-60.05347656 50.42558594 -60.04445313 49.41367188 -60.03515625 48.37109375 C-60.02355469 47.58863281 -60.01195313 46.80617187 -60 46 C-59.67 46 -59.34 46 -59 46 C-58.67 47.98 -58.34 49.96 -58 52 C-57.08476563 51.4946875 -56.16953125 50.989375 -55.2265625 50.46875 C-54.02616155 49.81228073 -52.82563413 49.1560427 -51.625 48.5 C-51.02171875 48.16613281 -50.4184375 47.83226562 -49.796875 47.48828125 C-45.2265625 45 -45.2265625 45 -43 45 C-43 42.36 -43 39.72 -43 37 C-42.67 37 -42.34 37 -42 37 C-42 39.31 -42 41.62 -42 44 C-33.94641424 45.65201759 -27.33724613 45.89323264 -20 42 C-17.50655461 39.50655461 -17.75758028 38.56188885 -17.625 35.125 C-17.18928832 30.3045073 -17.18928832 30.3045073 -15.5625 27.6875 C-5.40740741 21 -5.40740741 21 0 21 C0 14.07 0 7.14 0 0 Z " fill="#04787C" transform="translate(135,46)"/>
<path d="M0 0 C8.38546498 0.6537782 14.04919253 2.45794422 19.8125 8.875 C24.50984184 15.58548835 25.59602554 19.8558376 24.62890625 28 C23.02690718 35.64183405 19.29847462 40.40640675 12.96484375 44.80859375 C7.222749 48.29038082 2.70738967 48.84509552 -4 48 C-11.41488601 45.68956451 -16.65899682 41.37861692 -21 35 C-23.6374129 29.61050407 -23 26.57024297 -23 20 C-35.87 20 -48.74 20 -62 20 C-62 19.67 -62 19.34 -62 19 C-48.8 19 -35.6 19 -22 19 C-22 21.97 -22 24.94 -22 28 C-18.8741936 27.88644298 -15.74990475 27.75969417 -12.625 27.625 C-11.29082031 27.57859375 -11.29082031 27.57859375 -9.9296875 27.53125 C-8.65351563 27.47324219 -8.65351563 27.47324219 -7.3515625 27.4140625 C-6.17327881 27.36693115 -6.17327881 27.36693115 -4.97119141 27.31884766 C-2.76997061 27.1600535 -2.76997061 27.1600535 -1 25 C-0.62826984 22.3817233 -0.62826984 22.3817233 -0.5859375 19.3359375 C-0.54726562 18.21445313 -0.50859375 17.09296875 -0.46875 15.9375 C-0.4378125 14.761875 -0.406875 13.58625 -0.375 12.375 C-0.33632812 11.19164063 -0.29765625 10.00828125 -0.2578125 8.7890625 C-0.16331155 5.85953309 -0.07775442 2.93001403 0 0 Z " fill="#3AC3CC" transform="translate(139,85)"/>
<path d="M0 0 C0 1.98 0 3.96 0 6 C-4.95 6 -9.9 6 -15 6 C-14.67 7.65 -14.34 9.3 -14 11 C-11.65395402 12.45330282 -9.57065418 13.55114212 -7.0625 14.625 C-0.23514851 17.64727723 -0.23514851 17.64727723 2 21 C2.88125894 27.8297568 2.88125894 27.8297568 0.796875 30.59765625 C-4.1217421 34.85797359 -8.51851328 35.21937179 -14.73828125 35.16796875 C-17.70530475 34.94761985 -20.25774737 34.12502672 -23 33 C-23 30.69 -23 28.38 -23 26 C-22.29488281 26.32742187 -21.58976562 26.65484375 -20.86328125 26.9921875 C-17.76132833 28.08400722 -15.45993947 28.20385396 -12.1875 28.125 C-11.21167969 28.10695313 -10.23585938 28.08890625 -9.23046875 28.0703125 C-8.49441406 28.04710938 -7.75835937 28.02390625 -7 28 C-6.67 26.68 -6.34 25.36 -6 24 C-6.97582031 23.46890625 -7.95164062 22.9378125 -8.95703125 22.390625 C-10.24244561 21.67754842 -11.52758768 20.96398083 -12.8125 20.25 C-13.45509766 19.90195313 -14.09769531 19.55390625 -14.75976562 19.1953125 C-18.27971985 17.22559718 -20.99915453 15.55947509 -23 12 C-23.5596596 8.24228551 -23.31700782 6.53647477 -21.375 3.25 C-15.63309286 -2.1897015 -7.2895437 -2.06152254 0 0 Z " fill="#EEF5F5" transform="translate(116,57)"/>
<path d="M0 0 C0.33 0.99 0.66 1.98 1 3 C2.0194873 2.98952637 3.03897461 2.97905273 4.08935547 2.96826172 C7.86503602 2.93211273 11.64070121 2.90911823 15.41650391 2.89013672 C17.05194672 2.88006746 18.68737149 2.86641119 20.32275391 2.84912109 C22.6709437 2.82491295 25.01889588 2.81352643 27.3671875 2.8046875 C28.10057343 2.79436493 28.83395935 2.78404236 29.58956909 2.77340698 C31.39462697 2.77300632 33.1990783 2.87787245 35 3 C37 5 37 5 37.23046875 8.66015625 C37.22647733 10.12766864 37.21172158 11.59518209 37.1875 13.0625 C37.18685547 13.80822266 37.18621094 14.55394531 37.18554688 15.32226562 C37.14028159 20.85971841 37.14028159 20.85971841 36 22 C35.84193469 23.92478813 35.748865 25.8549921 35.68359375 27.78515625 C35.62075195 29.53989258 35.62075195 29.53989258 35.55664062 31.33007812 C35.51732422 32.56177734 35.47800781 33.79347656 35.4375 35.0625 C35.37272461 36.91584961 35.37272461 36.91584961 35.30664062 38.80664062 C35.20015802 41.87097335 35.09814576 44.93539073 35 48 C34.01 48 33.02 48 32 48 C31.970271 46.19813232 31.970271 46.19813232 31.93994141 44.35986328 C31.8640038 39.91303146 31.77526868 35.46653195 31.68261719 31.02001953 C31.64427832 29.09365386 31.60943418 27.1672154 31.578125 25.24072266 C31.53258055 22.47532082 31.47456963 19.71042231 31.4140625 16.9453125 C31.40251129 16.0806839 31.39096008 15.2160553 31.37905884 14.32522583 C31.47337842 9.68217152 31.47337842 9.68217152 29 6 C25.89243985 5.62677573 25.89243985 5.62677573 22.2421875 5.5859375 C21.57913605 5.56657135 20.91608459 5.5472052 20.23294067 5.5272522 C18.11375823 5.46744046 15.9945215 5.42106612 13.875 5.375 C12.43877831 5.33682155 11.00257955 5.29776989 9.56640625 5.2578125 C6.04448064 5.16173875 2.52238392 5.07771358 -1 5 C-0.67 3.35 -0.34 1.7 0 0 Z " fill="#056065" transform="translate(104,38)"/>
<path d="M0 0 C0.33 0 0.66 0 1 0 C1.08696177 3.93736123 1.14037835 7.87447628 1.1875 11.8125 C1.21263672 12.93205078 1.23777344 14.05160156 1.26367188 15.20507812 C1.27333984 16.27822266 1.28300781 17.35136719 1.29296875 18.45703125 C1.3086792 19.44678955 1.32438965 20.43654785 1.34057617 21.45629883 C1 24 1 24 -0.24023438 25.828125 C-2.47049284 27.31331376 -3.78298077 27.34665139 -6.44921875 27.29296875 C-7.29677734 27.28330078 -8.14433594 27.27363281 -9.01757812 27.26367188 C-10.33918945 27.2259668 -10.33918945 27.2259668 -11.6875 27.1875 C-12.58017578 27.17396484 -13.47285156 27.16042969 -14.39257812 27.14648438 C-16.59566166 27.11114079 -18.79752582 27.06180493 -21 27 C-20.67 25.35 -20.34 23.7 -20 22 C-18.71222656 21.93941406 -17.42445312 21.87882812 -16.09765625 21.81640625 C-14.41925841 21.73201753 -12.74087364 21.6473687 -11.0625 21.5625 C-10.21236328 21.52318359 -9.36222656 21.48386719 -8.48632812 21.44335938 C-7.67744141 21.40146484 -6.86855469 21.35957031 -6.03515625 21.31640625 C-4.91185913 21.26141968 -4.91185913 21.26141968 -3.76586914 21.20532227 C-1.97538674 21.18228937 -1.97538674 21.18228937 -1 20 C-0.84344973 18.51361008 -0.74933057 17.02050873 -0.68359375 15.52734375 C-0.64169922 14.62822266 -0.59980469 13.72910156 -0.55664062 12.80273438 C-0.51732422 11.85720703 -0.47800781 10.91167969 -0.4375 9.9375 C-0.39431641 8.98810547 -0.35113281 8.03871094 -0.30664062 7.06054688 C-0.20020724 4.70718647 -0.09818992 2.35371646 0 0 Z " fill="#278C93" transform="translate(138,86)"/>
<path d="M0 0 C0.66 0 1.32 0 2 0 C2.05790353 3.29159316 2.09356261 6.58305603 2.125 9.875 C2.14175781 10.81214844 2.15851563 11.74929687 2.17578125 12.71484375 C2.18222656 13.61074219 2.18867188 14.50664063 2.1953125 15.4296875 C2.20578613 16.25710449 2.21625977 17.08452148 2.22705078 17.93701172 C2 20 2 20 0 22 C-1.87939453 22.22705078 -1.87939453 22.22705078 -4.1328125 22.1953125 C-4.93847656 22.18886719 -5.74414062 22.18242188 -6.57421875 22.17578125 C-7.41597656 22.15902344 -8.25773437 22.14226562 -9.125 22.125 C-10.39923828 22.11146484 -10.39923828 22.11146484 -11.69921875 22.09765625 C-13.79959884 22.07405647 -15.89983444 22.03818483 -18 22 C-18.33 22.66 -18.66 23.32 -19 24 C-19 22.35 -19 20.7 -19 19 C-17.86820312 18.96261719 -16.73640625 18.92523438 -15.5703125 18.88671875 C-14.08850795 18.82106918 -12.60673861 18.75462149 -11.125 18.6875 C-10.37863281 18.66494141 -9.63226563 18.64238281 -8.86328125 18.61914062 C-6.900396 18.52188055 -4.94671678 18.26957706 -3 18 C-0.59880941 14.39821412 -0.56228678 11.49133631 -0.375 7.3125 C-0.33632812 6.61060547 -0.29765625 5.90871094 -0.2578125 5.18554688 C-0.1637666 3.45745345 -0.0808032 1.72876325 0 0 Z " fill="#1E7379" transform="translate(136,86)"/>
<path d="M0 0 C0.66 0 1.32 0 2 0 C2 8.58 2 17.16 2 26 C1.01 26 0.02 26 -1 26 C-1.02886751 21.85418113 -1.04675327 17.70838784 -1.0625 13.5625 C-1.07087891 12.37849609 -1.07925781 11.19449219 -1.08789062 9.97460938 C-1.09111328 8.84990234 -1.09433594 7.72519531 -1.09765625 6.56640625 C-1.10289307 5.52427979 -1.10812988 4.48215332 -1.11352539 3.40844727 C-1 1 -1 1 0 0 Z " fill="#179196" transform="translate(140,59)"/>
<path d="M0 0 C0.33 0 0.66 0 1 0 C1 7.92 1 15.84 1 24 C0.01 24 -0.98 24 -2 24 C-2.05802698 20.56257082 -2.09360486 17.12526747 -2.125 13.6875 C-2.14175781 12.71103516 -2.15851563 11.73457031 -2.17578125 10.72851562 C-2.18222656 9.79072266 -2.18867188 8.85292969 -2.1953125 7.88671875 C-2.20578613 7.02264404 -2.21625977 6.15856934 -2.22705078 5.26831055 C-2 3 -2 3 0 0 Z " fill="#076064" transform="translate(138,62)"/>
<path d="M0 0 C6.93 0 13.86 0 21 0 C20.01 1.485 20.01 1.485 19 3 C17.02880859 3.34057617 17.02880859 3.34057617 14.6484375 3.29296875 C13.79765625 3.28330078 12.946875 3.27363281 12.0703125 3.26367188 C11.18085938 3.23853516 10.29140625 3.21339844 9.375 3.1875 C8.4778125 3.17396484 7.580625 3.16042969 6.65625 3.14648438 C4.43690211 3.11106925 2.21874812 3.06168461 0 3 C0 2.01 0 1.02 0 0 Z " fill="#2B9EA4" transform="translate(117,110)"/>
<path d="M0 0 C3.875 1.75 3.875 1.75 5 4 C5.15029677 6.49434832 5.23122109 8.94225298 5.25 11.4375 C5.270625 12.11876953 5.29125 12.80003906 5.3125 13.50195312 C5.35245753 18.60153284 5.35245753 18.60153284 3.47949219 20.71899414 C2.99125977 21.14172607 2.50302734 21.56445801 2 22 C1.97494385 21.44014404 1.9498877 20.88028809 1.92407227 20.3034668 C1.80796255 17.76458695 1.6853042 15.22606447 1.5625 12.6875 C1.52318359 11.80642578 1.48386719 10.92535156 1.44335938 10.01757812 C1.40146484 9.17001953 1.35957031 8.32246094 1.31640625 7.44921875 C1.26141968 6.27879028 1.26141968 6.27879028 1.20532227 5.0847168 C1.05874737 2.80670899 1.05874737 2.80670899 0 0 Z " fill="#014346" transform="translate(134,43)"/>
<path d="M0 0 C0.33 0.99 0.66 1.98 1 3 C0 4 0 4 -3.81640625 4.09765625 C-5.39846682 4.09098089 -6.98051159 4.07901875 -8.5625 4.0625 C-9.36880859 4.05798828 -10.17511719 4.05347656 -11.00585938 4.04882812 C-13.00393756 4.03700518 -15.00197783 4.01906914 -17 4 C-17 3.34 -17 2.68 -17 2 C-15.85660156 1.93941406 -14.71320313 1.87882812 -13.53515625 1.81640625 C-12.04425695 1.73201572 -10.55337225 1.64736698 -9.0625 1.5625 C-8.30775391 1.52318359 -7.55300781 1.48386719 -6.77539062 1.44335938 C-3.08055813 1.55961976 -3.08055813 1.55961976 0 0 Z " fill="#17595E" transform="translate(134,103)"/>
<path d="M0 0 C-0.875 3.875 -0.875 3.875 -2 5 C-3.85287502 5.07226502 -5.70833878 5.0838122 -7.5625 5.0625 C-8.57441406 5.05347656 -9.58632812 5.04445313 -10.62890625 5.03515625 C-11.41136719 5.02355469 -12.19382812 5.01195313 -13 5 C-13 4.67 -13 4.34 -13 4 C-11.35 4 -9.7 4 -8 4 C-8 3.34 -8 2.68 -8 2 C-3.61016949 -1.20338983 -3.61016949 -1.20338983 0 0 Z " fill="#24878C" transform="translate(111,81)"/>
</svg>
