<?xml version="1.0" encoding="UTF-8"?>
<svg version="1.1" xmlns="http://www.w3.org/2000/svg" width="238" height="212">
<path d="M0 0 C78.54 0 157.08 0 238 0 C238 69.96 238 139.92 238 212 C159.46 212 80.92 212 0 212 C0 142.04 0 72.08 0 0 Z " fill="#FEFEFE" transform="translate(0,0)"/>
<path d="M0 0 C4.81840054 1.67555382 8.73008563 4.29802856 12.67578125 7.50390625 C12.67578125 8.16390625 12.67578125 8.82390625 12.67578125 9.50390625 C13.72765625 8.72015625 14.77953125 7.93640625 15.86328125 7.12890625 C22.67037295 2.05695557 29.37110124 1.54945843 37.67578125 2.50390625 C43.89329681 4.62186111 47.88891843 8.25116105 51.67578125 13.50390625 C52.71992188 13.26414062 52.71992188 13.26414062 53.78515625 13.01953125 C63.26357173 11.32878687 72.96329387 11.58596671 81.05078125 17.1328125 C87.91109283 22.71809906 92.108893 28.47783457 93.11328125 37.3828125 C93.56958988 46.98110647 91.89581792 53.85274217 86.42578125 61.75390625 C79.73539415 68.44429335 72.69760229 71.36567205 63.23828125 71.69140625 C57.78721884 72.08023375 55.23100177 73.90489605 51.52734375 77.8125 C47.59280937 81.40670546 43.72408473 81.74559731 38.55078125 81.62890625 C37.51695312 81.61085938 36.483125 81.5928125 35.41796875 81.57421875 C34.51304688 81.55101563 33.608125 81.5278125 32.67578125 81.50390625 C31.68578125 81.50390625 30.69578125 81.50390625 29.67578125 81.50390625 C28.54016382 83.20733239 27.40505879 84.91110402 26.2734375 86.6171875 C23.43384038 89.97055035 19.58883621 91.64347541 15.67578125 93.50390625 C14.68578125 93.99890625 14.68578125 93.99890625 13.67578125 94.50390625 C5.26397417 95.43559374 -1.36138878 94.45085472 -8.32421875 89.50390625 C-11.9285175 86.21525892 -14.37875534 83.35870149 -15.32421875 78.50390625 C-16.09765625 78.56191406 -16.87109375 78.61992188 -17.66796875 78.6796875 C-25.00716692 78.99759831 -29.74670465 78.44731782 -35.32421875 73.50390625 C-40.73837594 68.2143716 -42.62091399 63.20375418 -42.76171875 55.69140625 C-42.64083917 47.43705764 -40.08820142 43.25564981 -34.51171875 37.50390625 C-33.78984375 36.84390625 -33.06796875 36.18390625 -32.32421875 35.50390625 C-32.81921875 34.01890625 -32.81921875 34.01890625 -33.32421875 32.50390625 C-33.95842344 24.3216261 -34.13396627 17.37497413 -29.32421875 10.50390625 C-28.48890625 9.17359375 -28.48890625 9.17359375 -27.63671875 7.81640625 C-20.04647149 0.22615899 -10.41782389 -2.22363636 0 0 Z " fill="#C45AE5" transform="translate(91.32421875,32.49609375)"/>
<path d="M0 0 C1.68029994 0.97691857 3.34928604 1.97388051 5 3 C6.34356672 2.71066047 7.67628513 2.36968613 9 2 C10.66298444 1.86141796 12.33153043 1.78052078 14 1.75 C14.845625 1.72421875 15.69125 1.6984375 16.5625 1.671875 C19.50664796 2.06820261 20.8663162 2.96509786 23 5 C23 5.66 23 6.32 23 7 C23.66 6.67 24.32 6.34 25 6 C29.70777 5.60768583 32.07079697 5.52663242 36.3125 7.6875 C40.22080055 11.05045629 41.81069711 13.26472349 42.375 18.4375 C41.80738448 23.82984747 40.41783411 26.80773041 36.25 30.3125 C33 32 33 32 29.4375 32.5 C25.90305026 32.69713168 25.90305026 32.69713168 23.5625 35.125 C20.64938855 37.25654496 20.10166356 37.19324229 16.6875 36.75 C15.470625 36.5025 14.25375 36.255 13 36 C12.731875 36.61875 12.46375 37.2375 12.1875 37.875 C11 40 11 40 8 42 C3.38151543 42.74380089 -0.04470258 42.58487597 -4.0625 40.125 C-6 38 -6 38 -6 36 C-7.051875 35.938125 -8.10375 35.87625 -9.1875 35.8125 C-13.66337256 34.85862552 -15.12282867 33.46953013 -18 30 C-19.42662219 27.14675563 -19.31033868 25.16545451 -19 22 C-18.34 21.236875 -17.68 20.47375 -17 19.6875 C-14.74387762 16.65583555 -14.84785478 16.18571357 -15.125 12.625 C-15.33427795 8.71411827 -14.67593902 6.98018357 -12.125 4 C-8.25709398 -0.03607585 -5.63534626 -0.38205737 0 0 Z " fill="#C459E5" transform="translate(48,127)"/>
<path d="M0 0 C3.16762428 0.7502268 5.94839884 1.01920706 9.1875 0.9375 C13 1 13 1 15 3 C16.61422242 3.3290314 18.2423983 3.59207455 19.875 3.8125 C23.4095843 4.4765115 24.7987833 4.83231941 27.625 7.1875 C29.39191844 10.80165135 29.56857278 13.01999057 29 17 C27.20437595 19.75329021 25.94745078 21.52627461 23 23 C21.00039988 23.039992 18.99952758 23.04346799 17 23 C16.505 24.485 16.505 24.485 16 26 C13.04335481 27.4783226 10.25770263 27.06032783 7 27 C6.67 27.99 6.34 28.98 6 30 C2.90826248 31.54586876 0.40570448 31.29359521 -3 31 C-5 29.1875 -5 29.1875 -7 27 C-9.33124929 25.99515117 -11.66443537 24.99477753 -14 24 C-16 21 -16 21 -15.6875 17.375 C-15 14 -15 14 -14 13 C-13.75776615 11.39775444 -13.53112988 9.79313664 -13.3125 8.1875 C-12.55083994 4.24943538 -12.22839644 3.22320561 -9.25 0.3125 C-5.48638535 -1.2074213 -3.86275506 -1.06842161 0 0 Z " fill="#C45AE5" transform="translate(122,133)"/>
<path d="M0 0 C2.3125 1.0625 2.3125 1.0625 4 2 C4.66 1.67 5.32 1.34 6 1 C11.03486521 0.62704702 13.09408831 0.97606837 17 4 C17.969375 4 18.93875 4 19.9375 4 C23.60292141 4 25.13056023 4.76821352 28 7 C30.21920304 9.72356737 30 11.34748844 30 14.9375 C29.44371981 18.4518819 28.91780855 19.08792574 26.3125 21.875 C23.18809558 23.87933491 20.56066444 25.0289097 17 26 C16.34 26.33 15.68 26.66 15 27 C12.6670134 27.04022391 10.33293334 27.04320247 8 27 C7.34 28.32 6.68 29.64 6 31 C0.74452555 31.35036496 0.74452555 31.35036496 -2 31 C-4.0625 29.125 -4.0625 29.125 -6 27 C-8.32873375 26.31744011 -10.66182791 25.64949225 -13 25 C-15.31332486 21.53001271 -15.33957563 20.07490752 -15 16 C-14.34 15.01 -13.68 14.02 -13 13 C-12.47513375 10.46731209 -12.11606978 7.93615843 -11.7578125 5.375 C-9.91292664 -0.40691031 -5.39805405 -0.48196911 0 0 Z " fill="#C459E5" transform="translate(179,122)"/>
<path d="M0 0 C0.99 0.33 1.98 0.66 3 1 C3.33 0.67 3.66 0.34 4 0 C6.84797478 -0.29978682 8.41896632 -0.40071289 10.8125 1.25 C12 3 12 3 12 7 C9.36 7 6.72 7 4 7 C4.33 7.99 4.66 8.98 5 10 C7.97 10.495 7.97 10.495 11 11 C10.67 11.66 10.34 12.32 10 13 C7.125 13.125 7.125 13.125 4 13 C3.34 12.34 2.68 11.68 2 11 C1.34 11.66 0.68 12.32 0 13 C-3.07108055 13.3267107 -5.15050101 13.48138276 -7.875 11.9375 C-9.64273274 8.8930714 -9.36823916 6.4368988 -9 3 C-6.82504634 -0.74575352 -4.02839893 -0.33569991 0 0 Z " fill="#C65FE6" transform="translate(159,70)"/>
<path d="M0 0 C3.5 0.1875 3.5 0.1875 7 1 C9 4 9 4 8.8125 7.5625 C8 11 8 11 5 13 C2.5 13.375 2.5 13.375 0 13 C-1.875 11.4375 -1.875 11.4375 -3 9 C-2.67272727 2.67272727 -2.67272727 2.67272727 0 0 Z " fill="#F7EAFB" transform="translate(131,70)"/>
<path d="M0 0 C2.875 -0.125 2.875 -0.125 6 0 C8 2 8 2 8.1953125 4.6015625 C8.17210938 5.59929687 8.14890625 6.59703125 8.125 7.625 C8.10695313 8.62789062 8.08890625 9.63078125 8.0703125 10.6640625 C8.03550781 11.82035156 8.03550781 11.82035156 8 13 C1.9453125 13.1953125 1.9453125 13.1953125 0 13 C-0.66 12.34 -1.32 11.68 -2 11 C-1.44444444 6.44444444 -1.44444444 6.44444444 0 5 C1.99958364 4.95919217 4.00045254 4.95745644 6 5 C5.67 4.34 5.34 3.68 5 3 C3.02 3 1.04 3 -1 3 C-0.67 2.01 -0.34 1.02 0 0 Z " fill="#FCF8FD" transform="translate(81,70)"/>
<path d="M0 0 C1.2065625 0.0309375 1.2065625 0.0309375 2.4375 0.0625 C2.4375 0.7225 2.4375 1.3825 2.4375 2.0625 C1.4475 2.3925 0.4575 2.7225 -0.5625 3.0625 C-0.8925 3.7225 -1.2225 4.3825 -1.5625 5.0625 C-0.9025 5.0625 -0.2425 5.0625 0.4375 5.0625 C0.4375 6.0525 0.4375 7.0425 0.4375 8.0625 C-0.5525 8.0625 -1.5425 8.0625 -2.5625 8.0625 C-2.68367188 8.89394531 -2.80484375 9.72539063 -2.9296875 10.58203125 C-3.18105469 12.21205078 -3.18105469 12.21205078 -3.4375 13.875 C-3.59992188 14.95394531 -3.76234375 16.03289062 -3.9296875 17.14453125 C-4.5625 20.0625 -4.5625 20.0625 -6.5625 23.0625 C-9.1875 23.25 -9.1875 23.25 -11.5625 23.0625 C-11.5625 22.4025 -11.5625 21.7425 -11.5625 21.0625 C-10.5725 20.7325 -9.5825 20.4025 -8.5625 20.0625 C-7.52933512 17.27077761 -7.52933512 17.27077761 -6.875 14 C-6.62363281 12.89527344 -6.37226562 11.79054688 -6.11328125 10.65234375 C-5.93152344 9.79769531 -5.74976562 8.94304687 -5.5625 8.0625 C-6.2225 8.0625 -6.8825 8.0625 -7.5625 8.0625 C-7.2325 7.0725 -6.9025 6.0825 -6.5625 5.0625 C-5.9025 5.0625 -5.2425 5.0625 -4.5625 5.0625 C-4.418125 4.423125 -4.27375 3.78375 -4.125 3.125 C-3.30589691 0.12162199 -3.19313651 0.07788138 0 0 Z " fill="#F3DFF9" transform="translate(127.5625,64.9375)"/>
<path d="M0 0 C1.8125 1.25 1.8125 1.25 3 3 C3 4.32 3 5.64 3 7 C0.36 7 -2.28 7 -5 7 C-4.67 7.99 -4.34 8.98 -4 10 C-1.03 10.495 -1.03 10.495 2 11 C1.67 11.66 1.34 12.32 1 13 C-4.36842105 13.35789474 -4.36842105 13.35789474 -6.875 11.9375 C-8.64273274 8.8930714 -8.36823916 6.4368988 -8 3 C-5.95177941 -0.34183359 -3.7548828 -0.56323242 0 0 Z " fill="#E9C3F5" transform="translate(168,70)"/>
<path d="M0 0 C-0.49230769 6.52307692 -0.49230769 6.52307692 -3.0625 8.9375 C-3.701875 9.288125 -4.34125 9.63875 -5 10 C-8.16115776 8.63016497 -8.9927092 8.0109362 -11 5 C-11.125 2.3125 -11.125 2.3125 -11 0 C-7.18243176 -1.37432457 -3.92744671 -0.67975039 0 0 Z " fill="#E9EAEE" transform="translate(190,189)"/>
<path d="M0 0 C2 2 2 2 2.125 4.625 C2.08375 5.40875 2.0425 6.1925 2 7 C-0.64 7 -3.28 7 -6 7 C-4.29107501 10.31460705 -4.29107501 10.31460705 -0.875 10.6875 C0.07375 10.790625 1.0225 10.89375 2 11 C1.67 11.66 1.34 12.32 1 13 C-4.625 13.25 -4.625 13.25 -8 11 C-8.65658747 4.10583153 -8.65658747 4.10583153 -6.8125 1 C-4.37613976 -0.34419875 -2.74026253 -0.35131571 0 0 Z " fill="#ECCCF6" transform="translate(105,70)"/>
<path d="M0 0 C0.94875 0.04125 1.8975 0.0825 2.875 0.125 C3.205 1.115 3.535 2.105 3.875 3.125 C2.225 3.125 0.575 3.125 -1.125 3.125 C-0.3 3.681875 0.525 4.23875 1.375 4.8125 C3.875 7.125 3.875 7.125 4.25 9.8125 C3.875 12.125 3.875 12.125 2.875 13.125 C-2.65441176 13.36029412 -2.65441176 13.36029412 -5.125 12.125 C-5.125 11.465 -5.125 10.805 -5.125 10.125 C-3.145 10.125 -1.165 10.125 0.875 10.125 C-0.3315625 9.25875 -0.3315625 9.25875 -1.5625 8.375 C-4.125 6.125 -4.125 6.125 -5.0625 4 C-5.083125 3.38125 -5.10375 2.7625 -5.125 2.125 C-3.125 0.125 -3.125 0.125 0 0 Z " fill="#F6E9FB" transform="translate(73.125,69.875)"/>
<path d="M0 0 C0.94875 0.04125 1.8975 0.0825 2.875 0.125 C3.205 1.115 3.535 2.105 3.875 3.125 C2.225 3.125 0.575 3.125 -1.125 3.125 C-1.455 3.785 -1.785 4.445 -2.125 5.125 C-1.320625 5.269375 -0.51625 5.41375 0.3125 5.5625 C2.875 6.125 2.875 6.125 3.875 7.125 C3.91563832 8.79117115 3.917721 10.45888095 3.875 12.125 C-2.875 13.25 -2.875 13.25 -5.125 12.125 C-5.125 11.465 -5.125 10.805 -5.125 10.125 C-3.145 10.125 -1.165 10.125 0.875 10.125 C-0.3315625 9.25875 -0.3315625 9.25875 -1.5625 8.375 C-4.125 6.125 -4.125 6.125 -5.0625 4 C-5.083125 3.38125 -5.10375 2.7625 -5.125 2.125 C-3.125 0.125 -3.125 0.125 0 0 Z " fill="#F7EBFB" transform="translate(114.125,69.875)"/>
<path d="M0 0 C0 0.99 0 1.98 0 3 C-1.98 3.33 -3.96 3.66 -6 4 C-6 5.65 -6 7.3 -6 9 C-4.02 9.66 -2.04 10.32 0 11 C0 11.66 0 12.32 0 13 C-5.36842105 13.35789474 -5.36842105 13.35789474 -7.875 11.9375 C-9.64273274 8.8930714 -9.36823916 6.4368988 -9 3 C-6.82246161 -0.75020501 -4.02857537 -0.26857169 0 0 Z " fill="#F7EAFB" transform="translate(159,70)"/>
<path d="M0 0 C1.98 0.66 3.96 1.32 6 2 C6 3.32 6 4.64 6 6 C6.66 6.66 7.32 7.32 8 8 C1.9453125 8.1953125 1.9453125 8.1953125 0 8 C-0.66 7.34 -1.32 6.68 -2 6 C-1.44444444 1.44444444 -1.44444444 1.44444444 0 0 Z " fill="#F6E9FB" transform="translate(81,75)"/>
<path d="M0 0 C0.66 0 1.32 0 2 0 C1.34 1.65 0.68 3.3 0 5 C1.65 5 3.3 5 5 5 C3.68 5.33 2.36 5.66 1 6 C1.33 6.99 1.66 7.98 2 9 C4.97 9.495 4.97 9.495 8 10 C7.67 10.66 7.34 11.32 7 12 C1.63157895 12.35789474 1.63157895 12.35789474 -0.875 10.9375 C-2.61973477 7.93267901 -2.30835443 5.39189869 -2 2 C-1.34 1.34 -0.68 0.68 0 0 Z " fill="#FBF7FD" transform="translate(162,71)"/>
<path d="M0 0 C0.33 0 0.66 0 1 0 C1.3152595 5.98993047 0.68219822 9.63560356 -2 15 C-3.65 15 -5.3 15 -7 15 C-7 14.34 -7 13.68 -7 13 C-6.01 12.67 -5.02 12.34 -4 12 C-3.00594568 9.47178173 -3.00594568 9.47178173 -2.375 6.5 C-1.07457627 1.07457627 -1.07457627 1.07457627 0 0 Z " fill="#F8EDFC" transform="translate(123,73)"/>
<path d="M0 0 C1.32 0.66 2.64 1.32 4 2 C4.125 4.375 4.125 4.375 4 7 C3.34 7.66 2.68 8.32 2 9 C1.01 9 0.02 9 -1 9 C-1.625 5.625 -1.625 5.625 -2 2 C-1.34 1.34 -0.68 0.68 0 0 Z " fill="#C660E6" transform="translate(133,72)"/>
<path d="M0 0 C2.97 1.65 5.94 3.3 9 5 C8.67 5.66 8.34 6.32 8 7 C5.36 6.67 2.72 6.34 0 6 C0 5.34 0 4.68 0 4 C-2.64 4.33 -5.28 4.66 -8 5 C-8 4.34 -8 3.68 -8 3 C-5.36 3 -2.72 3 0 3 C0 2.01 0 1.02 0 0 Z " fill="#C96AE7" transform="translate(107,74)"/>
<path d="M0 0 C2.31 0 4.62 0 7 0 C7 0.99 7 1.98 7 3 C5.68 3.33 4.36 3.66 3 4 C2.67 6.97 2.34 9.94 2 13 C1.34 13 0.68 13 0 13 C0 8.71 0 4.42 0 0 Z " fill="#F9F0FC" transform="translate(142,70)"/>
<path d="M0 0 C0.66 0 1.32 0 2 0 C2.66 2.31 3.32 4.62 4 7 C6.97 7.495 6.97 7.495 10 8 C9.67 8.66 9.34 9.32 9 10 C3.375 10.25 3.375 10.25 0 8 C-0.40843923 5.28796348 -0.13336867 2.7562858 0 0 Z " fill="#FAF4FD" transform="translate(97,73)"/>
<path d="M0 0 C0.33 0 0.66 0 1 0 C1 2.31 1 4.62 1 7 C1.66 7 2.32 7 3 7 C3.30466674 12.28089024 3.317124 13.577168 0 18 C0 12.06 0 6.12 0 0 Z " fill="#D182EA" transform="translate(94,65)"/>
<path d="M0 0 C1.65 0 3.3 0 5 0 C5 1.32 5 2.64 5 4 C3.35 4 1.7 4 0 4 C0 2.68 0 1.36 0 0 Z " fill="#CA6CE7" transform="translate(82,77)"/>
</svg>
