<?xml version="1.0" encoding="UTF-8"?>
<svg version="1.1" xmlns="http://www.w3.org/2000/svg" width="200" height="200">
<path d="M0 0 C66 0 132 0 200 0 C200 66 200 132 200 200 C134 200 68 200 0 200 C0 134 0 68 0 0 Z " fill="#FEFDFE" transform="translate(0,0)"/>
<path d="M0 0 C5.28 0 10.56 0 16 0 C16 8.25 16 16.5 16 25 C24.25 25 32.5 25 41 25 C41 30.28 41 35.56 41 41 C32.75 41 24.5 41 16 41 C16 49.25 16 57.5 16 66 C10.72 66 5.44 66 0 66 C0 57.75 0 49.5 0 41 C-8.25 41 -16.5 41 -25 41 C-25 35.72 -25 30.44 -25 25 C-16.75 25 -8.5 25 0 25 C0 16.75 0 8.5 0 0 Z " fill="#7950F2" transform="translate(92,67)"/>
<path d="M0 0 C2.64 0 5.28 0 8 0 C8 5.61 8 11.22 8 17 C13.61 17 19.22 17 25 17 C25 19.64 25 22.28 25 25 C19.39 25 13.78 25 8 25 C8 30.61 8 36.22 8 42 C5.36 42 2.72 42 0 42 C0 36.39 0 30.78 0 25 C-5.61 25 -11.22 25 -17 25 C-17 22.36 -17 19.72 -17 17 C-11.39 17 -5.78 17 0 17 C0 11.39 0 5.78 0 0 Z " fill="#7A51F2" transform="translate(142,125)"/>
<path d="M0 0 C2.64 0 5.28 0 8 0 C8 5.61 8 11.22 8 17 C13.61 17 19.22 17 25 17 C25 19.64 25 22.28 25 25 C19.39 25 13.78 25 8 25 C8 30.61 8 36.22 8 42 C5.36 42 2.72 42 0 42 C0 36.39 0 30.78 0 25 C-5.61 25 -11.22 25 -17 25 C-17 22.36 -17 19.72 -17 17 C-11.39 17 -5.78 17 0 17 C0 11.39 0 5.78 0 0 Z " fill="#7A51F2" transform="translate(50,125)"/>
<path d="M0 0 C2.64 0 5.28 0 8 0 C8 5.61 8 11.22 8 17 C13.61 17 19.22 17 25 17 C25 19.64 25 22.28 25 25 C19.39 25 13.78 25 8 25 C8 30.61 8 36.22 8 42 C5.36 42 2.72 42 0 42 C0 36.39 0 30.78 0 25 C-5.61 25 -11.22 25 -17 25 C-17 22.36 -17 19.72 -17 17 C-11.39 17 -5.78 17 0 17 C0 11.39 0 5.78 0 0 Z " fill="#7A51F2" transform="translate(142,33)"/>
<path d="M0 0 C2.64 0 5.28 0 8 0 C8 5.61 8 11.22 8 17 C13.61 17 19.22 17 25 17 C25 19.64 25 22.28 25 25 C19.39 25 13.78 25 8 25 C8 30.61 8 36.22 8 42 C5.36 42 2.72 42 0 42 C0 36.39 0 30.78 0 25 C-5.61 25 -11.22 25 -17 25 C-17 22.36 -17 19.72 -17 17 C-11.39 17 -5.78 17 0 17 C0 11.39 0 5.78 0 0 Z " fill="#7A51F2" transform="translate(50,33)"/>
<path d="M0 0 C2.64 0 5.28 0 8 0 C8 3.96 8 7.92 8 12 C12.29 12 16.58 12 21 12 C21 14.97 21 17.94 21 21 C16.71 21 12.42 21 8 21 C8 24.96 8 28.92 8 33 C5.36 33 2.72 33 0 33 C0 29.04 0 25.08 0 21 C-4.29 21 -8.58 21 -13 21 C-13 18.03 -13 15.06 -13 12 C-8.71 12 -4.42 12 0 12 C0 8.04 0 4.08 0 0 Z " fill="#7E57F2" transform="translate(96,150)"/>
<path d="M0 0 C2.97 0 5.94 0 9 0 C9 4.29 9 8.58 9 13 C12.96 13 16.92 13 21 13 C21 15.64 21 18.28 21 21 C17.04 21 13.08 21 9 21 C9 25.29 9 29.58 9 34 C6.03 34 3.06 34 0 34 C0 29.71 0 25.42 0 21 C-3.96 21 -7.92 21 -12 21 C-12 18.36 -12 15.72 -12 13 C-8.04 13 -4.08 13 0 13 C0 8.71 0 4.42 0 0 Z " fill="#7E57F2" transform="translate(162,83)"/>
<path d="M0 0 C2.97 0 5.94 0 9 0 C9 4.29 9 8.58 9 13 C12.96 13 16.92 13 21 13 C21 15.64 21 18.28 21 21 C17.04 21 13.08 21 9 21 C9 25.29 9 29.58 9 34 C6.03 34 3.06 34 0 34 C0 29.71 0 25.42 0 21 C-3.96 21 -7.92 21 -12 21 C-12 18.36 -12 15.72 -12 13 C-8.04 13 -4.08 13 0 13 C0 8.71 0 4.42 0 0 Z " fill="#7E57F2" transform="translate(29,83)"/>
<path d="M0 0 C2.64 0 5.28 0 8 0 C8 3.96 8 7.92 8 12 C12.29 12 16.58 12 21 12 C21 14.97 21 17.94 21 21 C16.71 21 12.42 21 8 21 C8 24.96 8 28.92 8 33 C5.36 33 2.72 33 0 33 C0 29.04 0 25.08 0 21 C-4.29 21 -8.58 21 -13 21 C-13 18.03 -13 15.06 -13 12 C-8.71 12 -4.42 12 0 12 C0 8.04 0 4.08 0 0 Z " fill="#7E57F2" transform="translate(96,17)"/>
</svg>
